<?xml version="1.0" encoding="UTF-8"?>
<svg width="19px" height="19px" viewBox="0 0 19 19" version="1.1" xmlns="http://www.w3.org/2000/svg" xmlns:xlink="http://www.w3.org/1999/xlink">
    <!-- Generator: sketchtool 61.2 (101010) - https://sketch.com -->
    <title>00C7F9D0-DCCB-4CB4-97D8-B948E170C275</title>
    <desc>Created with sketchtool.</desc>
    <g id="Desain" stroke="none" stroke-width="1" fill="none" fill-rule="evenodd">
        <g id="Agensip-Class" transform="translate(-1131.000000, -5172.000000)" fill-rule="nonzero">
            <g id="footer" transform="translate(1.500000, 5112.100000)">
                <g id="contact" transform="translate(1127.000000, 0.000000)">
                    <g id="facebook" transform="translate(3.000000, 60.500000)">
                        <path d="M18,15.5 C18,16.8808595 16.8808595,18 15.5,18 L2.5,18 C1.1191405,18 0,16.8808595 0,15.5 L0,2.5 C0,1.1191405 1.1191405,0 2.5,0 L15.5,0 C16.8808595,0 18,1.1191405 18,2.5 L18,15.5 Z" id="Shape" fill="#3F51B5"></path>
                        <path d="M14.183594,9.5 L12.5,9.5 L12.5,16 L10,16 L10,9.5 L8.5,9.5 L8.5,7.5 L10,7.5 L10,6.294922 C10.001953,4.5410155 10.730469,3.5 12.796875,3.5 L14.5,3.5 L14.5,5.5 L13.357422,5.5 C12.5527345,5.5 12.5,5.8007815 12.5,6.361328 L12.5,7.5 L14.5,7.5 L14.183594,9.5 Z" id="Shape" fill="#FFFFFF"></path>
                    </g>
                </g>
            </g>
        </g>
    </g>
</svg>