<?xml version="1.0" encoding="UTF-8"?>
<svg width="24px" height="19px" viewBox="0 0 24 19" version="1.1" xmlns="http://www.w3.org/2000/svg" xmlns:xlink="http://www.w3.org/1999/xlink">
    <!-- Generator: sketchtool 61.2 (101010) - https://sketch.com -->
    <title>1C6ABECC-5EF7-40A1-BA6E-289621F53629</title>
    <desc>Created with sketchtool.</desc>
    <g id="Desain" stroke="none" stroke-width="1" fill="none" fill-rule="evenodd">
        <g id="Agensip-Class" transform="translate(-1272.000000, -5172.000000)" fill-rule="nonzero">
            <g id="footer" transform="translate(1.500000, 5112.100000)">
                <g id="contact" transform="translate(1127.000000, 0.000000)">
                    <g id="gmail" transform="translate(144.000000, 60.500000)">
                        <path d="M1.85294118,17.7352941 L21.4411765,17.7352941 C22.4648439,17.7352941 23.2941176,16.9060204 23.2941176,15.8823529 L23.2941176,2.11764706 C23.2941176,1.09397965 22.4648439,0.264705882 21.4411765,0.264705882 L1.85294118,0.264705882 C0.829273765,0.264705882 0,1.09397965 0,2.11764706 L0,15.8823529 C0,16.9060204 0.829273765,17.7352941 1.85294118,17.7352941 Z" id="Shape" fill="#E0E0E0"></path>
                        <path d="M12.7058824,17.7352941 L21.4411765,17.7352941 C22.4648439,17.7352941 23.2941176,16.9060204 23.2941176,15.8823529 L23.2941176,2.11764706 C23.2941176,1.09397965 22.4648439,0.264705882 21.4411765,0.264705882 L1.85294118,0.264705882 C0.829273765,0.264705882 0,1.09397965 0,2.11764706 L12.7058824,17.7352941 Z" id="Shape" fill="#D9D9D9"></path>
                        <path d="M2.512638,17.7352941 L21.4411765,17.7352941 C22.4648439,17.7352941 23.2941176,16.9060204 23.2941176,15.8823529 L23.2941176,2.38235294 L2.512638,17.7352941 Z" id="Shape" fill="#EEEEEE"></path>
                        <path d="M12.5714615,17.7352941 L21.4411765,17.7352941 C22.4648439,17.7352941 23.2941176,16.9060204 23.2941176,15.8823529 L23.2941176,2.38235294 L8.877987,13.0326289 L12.5714615,17.7352941 Z" id="Shape" fill="#E0E0E0"></path>
                        <path d="M21.4411765,1.32352941 L1.85294118,1.32352941 C0.829273765,1.32352941 0,1.09397965 0,2.11764706 L0,15.8823529 C0,16.9060204 0.829273765,17.7352941 1.85294118,17.7352941 L2.64705882,17.7352941 L2.64705882,2.64705882 L20.6470588,2.64705882 L20.6470588,17.7352941 L21.4411765,17.7352941 C22.4648439,17.7352941 23.2941176,16.9060204 23.2941176,15.8823529 L23.2941176,2.11764706 C23.2941176,1.09397965 22.4648439,1.32352941 21.4411765,1.32352941 Z" id="Shape" fill="#CA3737"></path>
                        <path d="M21.4411765,0.264705882 L1.85294118,0.264705882 C0.829273765,0.264705882 0,1.07743553 0,2.11764706 C0,2.75666347 0.804457588,3.31295982 0.804457588,3.31295982 L11.6470588,10.9894304 L22.4896601,3.31295982 C22.4896601,3.31295982 23.2941176,2.75666347 23.2941176,2.11764706 C23.2941176,1.07743553 22.4648439,0.264705882 21.4411765,0.264705882 Z" id="Shape" fill="#F5F5F5"></path>
                        <path d="M21.8361674,0.308134059 L11.6470588,7.41176471 L1.45795024,0.308134059 C0.624540706,0.485983588 0,1.21599265 0,2.11764706 C0,2.75666347 0.804457588,3.31295982 0.804457588,3.31295982 L11.6470588,10.9894304 L22.4896601,3.31295982 C22.4896601,3.31295982 23.2941176,2.75666347 23.2941176,2.11764706 C23.2941176,1.21599265 22.6695775,0.485983588 21.8361674,0.308134059 Z" id="Shape" fill="#E84F4B"></path>
                    </g>
                </g>
            </g>
        </g>
    </g>
</svg>