<?xml version="1.0" encoding="UTF-8"?>
<svg width="23px" height="19px" viewBox="0 0 23 19" version="1.1" xmlns="http://www.w3.org/2000/svg" xmlns:xlink="http://www.w3.org/1999/xlink">
    <!-- Generator: sketchtool 61.2 (101010) - https://sketch.com -->
    <title>418CFC94-A190-4408-AA60-C8C869833E43</title>
    <desc>Created with sketchtool.</desc>
    <g id="Desain" stroke="none" stroke-width="1" fill="none" fill-rule="evenodd">
        <g id="Agensip-Class" transform="translate(-1176.000000, -5172.000000)" fill="#03A9F4" fill-rule="nonzero">
            <g id="footer" transform="translate(1.500000, 5112.100000)">
                <g id="contact" transform="translate(1127.000000, 0.000000)">
                    <g id="twitter" transform="translate(47.000000, 60.500000)">
                        <path d="M22.9655172,2.12877186 C22.1435882,2.4924569 21.2610451,2.73491379 20.3300106,2.84886869 C21.2755928,2.28636869 22.0053879,1.38927786 22.347252,0.329741379 C21.4598601,0.851023862 20.4779098,1.23168103 19.4353448,1.43292041 C18.6012931,0.547952897 17.4108296,0 16.0918641,0 C13.5606141,0 11.5070046,2.03421352 11.5070046,4.54364255 C11.5070046,4.89762931 11.5482221,5.24434283 11.6258083,5.57893303 C7.81681034,5.38981697 4.43696152,3.57866379 2.17726324,0.829202897 C1.77963393,1.50080834 1.55657359,2.28636869 1.55657359,3.117996 C1.55657359,4.69396552 2.3639549,6.08324338 3.59563593,6.90032359 C2.84401924,6.878502 2.1360451,6.66756497 1.51778048,6.33297414 C1.51778048,6.34752186 1.51778048,6.36691841 1.51778048,6.38631497 C1.51778048,8.590248 3.09859945,10.4256466 5.19342703,10.8450968 C4.81034483,10.9493534 4.40544166,11.0075431 3.98841579,11.0075431 C3.69261869,11.0075431 3.40409483,10.9735994 3.12526924,10.922683 C3.70716579,12.7241379 5.39951524,14.040679 7.40705834,14.0794721 C5.83593766,15.2966054 3.85991379,16.0264012 1.711746,16.0264012 C1.34078648,16.0264012 0.977101448,16.0045796 0.618265241,15.9609377 C2.65005372,17.2459589 5.06007559,18 7.64709083,18 C16.0797414,18 20.6936963,11.075431 20.6936963,5.06734945 C20.6936963,4.8709589 20.6864224,4.67456897 20.6767241,4.48302786 C21.5762394,3.84536669 22.3521014,3.04525862 22.9655172,2.12877186" id="Shape"></path>
                    </g>
                </g>
            </g>
        </g>
    </g>
</svg>