<?xml version="1.0" encoding="UTF-8"?>
<svg width="23px" height="16px" viewBox="0 0 23 16" version="1.1" xmlns="http://www.w3.org/2000/svg" xmlns:xlink="http://www.w3.org/1999/xlink">
    <!-- Generator: sketchtool 61.2 (101010) - https://sketch.com -->
    <title>94E08F26-8866-408F-B7EE-64180B177293</title>
    <desc>Created with sketchtool.</desc>
    <g id="Desain" stroke="none" stroke-width="1" fill="none" fill-rule="evenodd">
        <g id="Agensip-Class-Pre-Launching" transform="translate(-1167.000000, -4351.000000)" fill-rule="nonzero">
            <g id="ic-youtube" transform="translate(1167.000000, 4351.000000)">
                <path d="M22.3862061,2.50359587 C22.1227097,1.52464803 21.3507054,0.752996568 20.3717057,0.489386752 C18.5830343,0 11.428349,0 11.428349,0 C11.428349,0 4.27383806,0 2.48516674,0.470731814 C1.52500055,0.734167295 0.734162628,1.52482236 0.47066628,2.50359587 C0,4.29167938 0,8 0,8 C0,8 0,11.7269756 0.47066628,13.4964041 C0.734337047,14.4751776 1.50616693,15.2470034 2.48534111,15.5106132 C4.29267169,16 11.4285234,16 11.4285234,16 C11.4285234,16 18.5830343,16 20.3717057,15.5292682 C21.3508798,15.2658327 22.1227097,14.4940069 22.3863805,13.5152334 C22.8571429,11.7269756 22.8571429,8.01882925 22.8571429,8.01882925 C22.8571429,8.01882925 22.8758804,4.29167938 22.3862061,2.50359587 Z" id="Path" fill="#FF0000"></path>
                <polygon id="Path" fill="#FFFFFF" points="9.14285714 11.4285714 15.2380952 8.00000002 9.14285714 4.57142857"></polygon>
            </g>
        </g>
    </g>
</svg>