<?xml version="1.0" encoding="UTF-8"?>
<svg width="45px" height="45px" viewBox="0 0 45 45" version="1.1" xmlns="http://www.w3.org/2000/svg" xmlns:xlink="http://www.w3.org/1999/xlink">
    <!-- Generator: sketchtool 61.2 (101010) - https://sketch.com -->
    <title>FE95C3E9-E320-464D-8329-DDF9B5977A1C</title>
    <desc>Created with sketchtool.</desc>
    <g id="Desain" stroke="none" stroke-width="1" fill="none" fill-rule="evenodd">
        <g id="Agensip-Class" transform="translate(-122.000000, -2365.000000)">
            <g id="why" transform="translate(120.000000, 1813.000000)">
                <g id="text" transform="translate(0.000000, 107.000000)">
                    <g id="4" transform="translate(2.000000, 445.000000)">
                        <g id="ico-4">
                            <rect id="Rectangle" fill="#FEF6E3" x="0" y="0" width="45" height="45" rx="16"></rect>
                            <g id="2194932" transform="translate(11.074219, 10.000000)" fill="#F1B90E" fill-rule="nonzero">
                                <path d="M15.7822266,14.9516602 C15.5753418,14.9516602 15.386377,14.8156738 15.3198242,14.6201172 C15.2551758,14.430127 15.3165527,14.2148926 15.4711426,14.0869629 C15.6237305,13.9607422 15.843457,13.9404297 16.0169922,14.0354492 C16.193457,14.1320801 16.2953613,14.3356934 16.2648438,14.5349609 C16.2287598,14.770752 16.0218262,14.9516602 15.7822266,14.9516602 L15.7822266,14.9516602 Z" id="Path"></path>
                                <path d="M12.6769043,6.30302734 L3.48925781,6.30302734 C3.21958008,6.30302734 3.00097656,6.084375 3.00097656,5.81474609 C3.00097656,5.54511719 3.21958008,5.32646484 3.48925781,5.32646484 L12.6769043,5.32646484 C12.9465332,5.32646484 13.1651855,5.54511719 13.1651855,5.81474609 C13.1651855,6.084375 12.9465332,6.30302734 12.6769043,6.30302734 Z" id="Path"></path>
                                <path d="M12.6769043,11.7846191 L3.48925781,11.7846191 C3.21958008,11.7846191 3.00097656,11.5659668 3.00097656,11.2963379 C3.00097656,11.026709 3.21958008,10.8080566 3.48925781,10.8080566 L12.6769043,10.8080566 C12.9465332,10.8080566 13.1651855,11.026709 13.1651855,11.2963379 C13.1651855,11.5659668 12.9465332,11.7846191 12.6769043,11.7846191 Z" id="Path"></path>
                                <path d="M12.6769043,14.9102539 L3.48925781,14.9102539 C3.21958008,14.9102539 3.00097656,14.6916016 3.00097656,14.4219727 C3.00097656,14.1523438 3.21958008,13.9336914 3.48925781,13.9336914 L12.6769043,13.9336914 C12.9465332,13.9336914 13.1651855,14.1523438 13.1651855,14.4219727 C13.1651855,14.6916016 12.9465332,14.9102539 12.6769043,14.9102539 Z" id="Path"></path>
                                <path d="M9.68525391,18.0359863 L3.48925781,18.0359863 C3.21958008,18.0359863 3.00097656,17.817334 3.00097656,17.5477051 C3.00097656,17.2780273 3.21958008,17.0594238 3.48925781,17.0594238 L9.68525391,17.0594238 C9.95493164,17.0594238 10.1735352,17.2780273 10.1735352,17.5477051 C10.1735352,17.817334 9.95493164,18.0359863 9.68525391,18.0359863 Z" id="Path"></path>
                                <path d="M14.5030762,0.977148438 L13.2715332,0.977148438 L13.2715332,0.48828125 C13.2715332,0.218603516 13.0528809,0 12.783252,0 C12.513623,0 12.2949707,0.218603516 12.2949707,0.48828125 L12.2949707,0.977148438 L10.1735352,0.977148438 L10.1735352,0.48828125 C10.1735352,0.218603516 9.95493164,0 9.68525391,0 C9.41557617,0 9.19697266,0.218603516 9.19697266,0.48828125 L9.19697266,0.977148438 L7.07553711,0.977148438 L7.07553711,0.48828125 C7.07553711,0.218603516 6.85693359,0 6.58725586,0 C6.31757813,0 6.09897461,0.218603516 6.09897461,0.48828125 L6.09897461,0.977148438 L3.97753906,0.977148438 L3.97753906,0.48828125 C3.97753906,0.218603516 3.75893555,0 3.48925781,0 C3.21958008,0 3.00097656,0.218603516 3.00097656,0.48828125 L3.00097656,0.977148438 L1.76943359,0.977148438 C0.794970703,0.977148438 0.00219726563,1.76992188 0.00219726563,2.74438477 L0.00219726563,23.2327637 C0.00219726563,24.2072266 0.794970703,25 1.76943359,25 L14.5030273,25 C15.4775391,25 16.2703613,24.2072266 16.2703613,23.2327637 L16.2703613,16.6616211 C16.2703613,16.3919922 16.051709,16.1733398 15.7820313,16.1733398 C15.5124023,16.1733398 15.29375,16.3919922 15.29375,16.6616211 L15.29375,23.2327148 C15.29375,23.6687012 14.9390137,24.0233887 14.5030273,24.0233887 L1.76943359,24.0233887 C1.33344727,24.0233887 0.978759766,23.6686523 0.978759766,23.2327148 L0.978759766,2.74438477 C0.978759766,2.30839844 1.33344727,1.95371094 1.76943359,1.95371094 L3.00097656,1.95371094 L3.00097656,2.53852539 C3.00097656,2.8081543 3.21958008,3.02680664 3.48925781,3.02680664 C3.75893555,3.02680664 3.97753906,2.8081543 3.97753906,2.53852539 L3.97753906,1.95371094 L6.09897461,1.95371094 L6.09897461,2.53852539 C6.09897461,2.8081543 6.31757813,3.02680664 6.58725586,3.02680664 C6.85693359,3.02680664 7.07553711,2.8081543 7.07553711,2.53852539 L7.07553711,1.95371094 L9.19697266,1.95371094 L9.19697266,2.53852539 C9.19697266,2.8081543 9.41557617,3.02680664 9.68525391,3.02680664 C9.95493164,3.02680664 10.1735352,2.8081543 10.1735352,2.53852539 L10.1735352,1.95371094 L12.2949707,1.95371094 L12.2949707,2.53852539 C12.2949707,2.8081543 12.513623,3.02680664 12.783252,3.02680664 C13.0528809,3.02680664 13.2715332,2.8081543 13.2715332,2.53852539 L13.2715332,1.95371094 L14.5030762,1.95371094 C14.9391113,1.95371094 15.2937988,2.30844727 15.2937988,2.74438477 L15.2937988,12.2469238 C15.2937988,12.5165527 15.5124512,12.7352051 15.7820801,12.7352051 C16.0517578,12.7352051 16.2703613,12.5165527 16.2703613,12.2469238 L16.2703613,2.74438477 C16.2703613,1.76992187 15.4775391,0.977148437 14.5030762,0.977148438 Z" id="Path"></path>
                                <path d="M22.8493652,21.9409668 L22.8451172,2.62592773 C22.8448242,1.74404297 22.1271484,1.02636719 21.245459,1.02607422 L19.8588867,1.02509766 L19.8583984,1.02509766 C19.430957,1.02509766 19.0291016,1.19155273 18.7268066,1.49384766 C18.4244141,1.79624023 18.2579102,2.19829102 18.2580565,2.62592773 L18.2623047,21.939502 L18.2623047,21.9654297 C18.2623047,22.0666016 18.2937988,22.165332 18.3522949,22.2479004 L20.1581055,24.7941895 C20.2496582,24.923291 20.3981445,25 20.5563965,25 C20.7146484,25 20.8631348,24.923291 20.9546875,24.7941895 L22.7593262,22.2495605 C22.8178711,22.1669922 22.8493164,22.0682617 22.8493164,21.9670898 L22.8493164,21.9409668 L22.8493652,21.9409668 Z M21.8692383,5.01347656 L21.8696289,6.61743164 L19.2357422,6.61743164 L19.2353516,5.01225586 L20.5363281,5.0128418 L21.8692383,5.01347656 Z M19.2358887,7.59399414 L21.8697754,7.59399414 L21.8725098,20.6660645 L21.6523926,20.4208984 C21.5565918,20.3141602 21.4200684,20.2550293 21.2752441,20.2590332 C21.1318848,20.2630859 20.9974609,20.3300293 20.9078613,20.4419922 L20.5557129,20.8819824 L20.202832,20.4412109 C20.1131836,20.329248 19.9788086,20.2623535 19.8354492,20.2583008 C19.8308594,20.2581543 19.8262695,20.2581055 19.8216797,20.2581055 C19.683252,20.2581055 19.5510742,20.3168945 19.4583496,20.420166 L19.238623,20.6648926 L19.2358887,7.59399414 Z M19.417334,2.18432617 C19.5351563,2.06655273 19.6917969,2.00166016 19.8582031,2.00166016 L19.8583984,2.00166016 L21.2450195,2.00263672 C21.5887207,2.00273437 21.868457,2.2824707 21.8685547,2.6262207 L21.8689941,4.03696289 L20.5703125,4.03637695 L19.2351074,4.03574219 L19.2346679,2.62563477 C19.2346191,2.45888672 19.2995117,2.30219727 19.417334,2.18432617 Z M20.5564453,23.6676758 L19.3643066,21.9867188 L19.8003418,21.5010254 L20.1745605,21.9685059 C20.2672363,22.0842285 20.4075195,22.1516113 20.5557617,22.1516113 C20.7040527,22.1516113 20.8442871,22.0842285 20.9370117,21.968457 L21.3104492,21.5018066 L21.7473633,21.9883789 L20.5564453,23.6676758 Z" id="Shape"></path>
                            </g>
                        </g>
                    </g>
                </g>
            </g>
        </g>
    </g>
</svg>