<?xml version="1.0" encoding="UTF-8"?>
<svg width="45px" height="45px" viewBox="0 0 45 45" version="1.1" xmlns="http://www.w3.org/2000/svg" xmlns:xlink="http://www.w3.org/1999/xlink">
    <!-- Generator: sketchtool 61.2 (101010) - https://sketch.com -->
    <title>1ADDB80B-B8DB-4CC7-8B1F-C3ADA6EE825F</title>
    <desc>Created with sketchtool.</desc>
    <g id="Desain" stroke="none" stroke-width="1" fill="none" fill-rule="evenodd">
        <g id="Agensip-Class" transform="translate(-344.000000, -2370.000000)">
            <g id="why" transform="translate(120.000000, 1813.000000)">
                <g id="text" transform="translate(0.000000, 107.000000)">
                    <g id="5" transform="translate(224.000000, 450.000000)">
                        <g id="ico-5">
                            <rect id="Rectangle" fill="#FDF3ED" x="0" y="0" width="45" height="45" rx="16"></rect>
                            <g id="478544" transform="translate(10.160156, 9.500000)" fill="#EA833C" fill-rule="nonzero">
                                <path d="M24.1413555,24.984375 L23.0275703,24.984375 L23.0275703,8.812375 C23.0275703,8.05964453 22.4151484,7.44727344 21.6624688,7.44727344 L19.1729688,7.44727344 C18.4202383,7.44727344 17.8078672,8.05969531 17.8078672,8.812375 L17.8078672,24.984375 L14.9797578,24.984375 L14.9797578,16.1395508 C14.9797578,15.3868203 14.3673867,14.7744492 13.6146563,14.7744492 L11.1251563,14.7744492 C10.3724258,14.7744492 9.76005469,15.3868711 9.76005469,16.1395508 L9.76005469,24.984375 L6.93194531,24.984375 L6.93194531,20.4037031 C6.93194531,19.6509727 6.31952344,19.0386016 5.56684375,19.0386016 L3.07729297,19.0386016 C2.3245625,19.0386016 1.71219141,19.6510234 1.71219141,20.4037031 L1.71219141,24.984375 L0.538332031,24.984375 C0.257867188,24.984375 0.0305195312,25.2117227 0.0305195312,25.4921875 C0.0305195312,25.7726523 0.257867188,26 0.538332031,26 L24.1413555,26 C24.4218203,26 24.649168,25.7726523 24.649168,25.4921875 C24.649168,25.2117227 24.4218203,24.984375 24.1413555,24.984375 Z M5.91621875,24.984375 L2.72776563,24.984375 L2.72776563,20.4037031 C2.72776563,20.2109883 2.88452734,20.0542266 3.07724219,20.0542266 L5.56674219,20.0542266 C5.75945703,20.0542266 5.91621875,20.2109883 5.91621875,20.4037031 L5.91621875,24.984375 Z M13.964082,24.984375 L10.7756289,24.984375 L10.7756289,16.1395508 C10.7756289,15.9468359 10.9323906,15.7900742 11.1251055,15.7900742 L13.6146055,15.7900742 C13.8072695,15.7900742 13.964082,15.9468359 13.964082,16.1395508 L13.964082,24.984375 Z M22.0119453,24.984375 L18.8234922,24.984375 L18.8234922,8.812375 C18.8234922,8.61966016 18.9802539,8.46289844 19.1729688,8.46289844 L21.6624688,8.46289844 C21.8551836,8.46289844 22.0119453,8.61966016 22.0119453,8.812375 L22.0119453,24.984375 Z" id="Shape"></path>
                                <path d="M23.0263516,0.534015625 C23.0334609,0.395433594 22.9847109,0.254515625 22.8788828,0.1486875 C22.7730547,0.042859375 22.6321367,-0.00594140625 22.4935547,0.00121875 C22.4853789,0.00086328125 22.4773047,0 22.4689766,0 L19.3967109,0 C19.1162461,0 18.8888984,0.227347656 18.8888984,0.5078125 C18.8888984,0.788277344 19.1162461,1.015625 19.3967109,1.015625 L21.2937461,1.015625 L16.2736641,6.03575781 L14.3805391,4.14263281 C14.2853242,4.04741797 14.1561367,3.99389453 14.0214648,3.99389453 C13.886793,3.99389453 13.7576055,4.04741797 13.6623906,4.14263281 L4.53349609,13.2715781 C4.33519531,13.4698789 4.33519531,13.7914258 4.53349609,13.9897773 C4.63267187,14.0888516 4.76262109,14.1384141 4.89257031,14.1384141 C5.02251953,14.1384141 5.15251953,14.0888516 5.25164453,13.9896758 L14.0214648,5.21980469 L15.9145898,7.11292969 C16.1128906,7.31123047 16.4344375,7.31123047 16.6327891,7.11292969 L22.0119453,1.73382422 L22.0119453,3.45073828 C22.0119453,3.73120312 22.239293,3.95855078 22.5197578,3.95855078 C22.8002227,3.95855078 23.0275703,3.73120312 23.0275703,3.45073828 L23.0275703,0.55859375 C23.0275703,0.550316406 23.026707,0.542242188 23.0263516,0.534015625 Z" id="Path"></path>
                                <circle id="Oval" cx="3.1809375" cy="15.4024609" r="1"></circle>
                            </g>
                        </g>
                    </g>
                </g>
            </g>
        </g>
    </g>
</svg>