<?xml version="1.0" encoding="UTF-8"?>
<svg width="45px" height="45px" viewBox="0 0 45 45" version="1.1" xmlns="http://www.w3.org/2000/svg" xmlns:xlink="http://www.w3.org/1999/xlink">
    <!-- Generator: sketchtool 61.2 (101010) - https://sketch.com -->
    <title>BB85379A-04DD-43DC-9FF4-C2B909D3479A</title>
    <desc>Created with sketchtool.</desc>
    <g id="Desain" stroke="none" stroke-width="1" fill="none" fill-rule="evenodd">
        <g id="Agensip-Class" transform="translate(-344.000000, -2114.000000)">
            <g id="why" transform="translate(120.000000, 1813.000000)">
                <g id="text" transform="translate(0.000000, 107.000000)">
                    <g id="2" transform="translate(224.000000, 194.000000)">
                        <g id="ico-2">
                            <rect id="Rectangle" fill="#E6FBFF" x="0" y="0" width="45" height="45" rx="16"></rect>
                            <g id="2010826" transform="translate(10.261719, 9.500000)" fill="#53ADBC" fill-rule="nonzero">
                                <path d="M13.8502813,18.7375703 L8.016125,18.7375703 C7.73373047,18.7375703 7.50480859,18.966543 7.50480859,19.2489883 C7.50480859,19.5314336 7.73373047,19.7604062 8.016125,19.7604062 L13.8502813,19.7604062 C14.1326758,19.7604062 14.3615977,19.5314336 14.3615977,19.2489883 C14.3615977,18.966543 14.1326758,18.7375703 13.8502813,18.7375703 Z" id="Path"></path>
                                <path d="M5.28769922,21.870875 C5.28769922,22.1533203 5.51662109,22.382293 5.79901562,22.382293 L8.65353125,22.382293 C8.93592578,22.382293 9.16484766,22.1533203 9.16484766,21.870875 C9.16484766,21.5884297 8.93592578,21.359457 8.65353125,21.359457 L5.79901563,21.359457 C5.51662109,21.359457 5.28769922,21.5884297 5.28769922,21.870875 L5.28769922,21.870875 Z" id="Path"></path>
                                <path d="M12.7016094,21.870875 C12.7016094,22.1533203 12.930582,22.382293 13.2129258,22.382293 L16.0674414,22.382293 C16.3498359,22.382293 16.5787578,22.1533203 16.5787578,21.870875 C16.5787578,21.5884297 16.3497852,21.359457 16.0674414,21.359457 L13.2129258,21.359457 C12.930582,21.359457 12.7016094,21.5884297 12.7016094,21.870875 Z" id="Path"></path>
                                <path d="M10.9281758,21.359457 C10.6457812,21.359457 10.4168594,21.5884297 10.4168594,21.870875 C10.4168594,22.1533203 10.6457813,22.382293 10.9281758,22.382293 L10.9382305,22.382293 C11.220625,22.382293 11.4495469,22.1533203 11.4495469,21.870875 C11.4495469,21.5884297 11.220625,21.359457 10.9382305,21.359457 L10.9281758,21.359457 Z" id="Path"></path>
                                <path d="M0.548996094,8.45685547 C0.831390625,8.45685547 1.0603125,8.22788281 1.0603125,7.9454375 L1.0603125,7.93533203 C1.0603125,7.65288672 0.831390625,7.42391406 0.548996094,7.42391406 C0.266601562,7.42391406 0.0376796875,7.65288672 0.0376796875,7.93533203 L0.0376796875,7.9454375 C0.0376796875,8.22788281 0.266601562,8.45685547 0.548996094,8.45685547 Z" id="Path"></path>
                                <path d="M23.8371758,20.1752383 L21.5396289,17.8777422 L21.5396289,4.92776172 C21.5396289,4.91141016 21.5387148,4.89516016 21.5371406,4.87896094 C21.5364805,4.87215625 21.5353125,4.86550391 21.5344492,4.85880078 C21.5332305,4.84971094 21.5320117,4.84067188 21.5303359,4.83168359 C21.5287617,4.82355859 21.5267812,4.81558594 21.5248516,4.80761328 C21.5230742,4.80030078 21.5212969,4.79298828 21.5192148,4.78577734 C21.5167773,4.77734766 21.5140352,4.76907031 21.5111406,4.76079297 C21.5088555,4.75419141 21.5064687,4.74758984 21.5039297,4.74103906 C21.5007305,4.73286328 21.4973281,4.72478906 21.4936719,4.71681641 C21.4907266,4.71031641 21.4875781,4.70386719 21.4843789,4.69746875 C21.4805703,4.68995313 21.4766602,4.6824375 21.4724961,4.675125 C21.4686875,4.66842188 21.464625,4.66192188 21.4605117,4.65537109 C21.4562969,4.64871875 21.4521836,4.64206641 21.4476641,4.63561719 C21.4427891,4.62866016 21.4376094,4.62190625 21.4323789,4.61515234 C21.4280117,4.60951563 21.4237461,4.60382813 21.4191758,4.59834375 C21.4179063,4.59682031 21.4168398,4.59524609 21.4155703,4.59372266 L17.6086016,0.177480469 C17.6053516,0.173722656 17.6016445,0.170421875 17.598293,0.166765625 C17.5909805,0.158792969 17.5836172,0.150871094 17.5757969,0.143355469 C17.5705664,0.138328125 17.5651836,0.133554688 17.55975,0.12878125 C17.5519805,0.121925781 17.5441094,0.115222656 17.5359336,0.108824219 C17.5303477,0.104457031 17.5246602,0.100242188 17.5189219,0.096078125 C17.5101875,0.0898320313 17.50125,0.083890625 17.4921602,0.0781523438 C17.486625,0.0746992188 17.4810898,0.0712460938 17.4754531,0.0679960938 C17.4653984,0.0622578125 17.4550898,0.0569257813 17.4446289,0.0518476563 C17.4394492,0.049359375 17.4344219,0.04671875 17.4291914,0.0443828125 C17.4176641,0.0392539063 17.4058828,0.034734375 17.3939492,0.03046875 C17.3893281,0.0287929688 17.3848594,0.0269648438 17.3802383,0.0254414063 C17.3674414,0.0212773438 17.3543398,0.0178242188 17.3411367,0.014625 C17.3370234,0.013609375 17.3329609,0.0123398438 17.3288477,0.0114765625 C17.3149844,0.00848046875 17.3008164,0.00634765625 17.2865469,0.0045703125 C17.2828906,0.00411328125 17.2792852,0.00330078125 17.2756289,0.00289453125 C17.2577539,0.00106640625 17.2396758,2.84217094e-14 17.2213438,2.84217094e-14 L2.32441016,2.84217094e-14 C1.06351172,2.84217094e-14 0.0376796875,1.02664453 0.0376796875,2.28860938 L0.0376796875,5.65591406 C0.0376796875,5.93835938 0.266601563,6.16733203 0.548996094,6.16733203 C0.831390625,6.16733203 1.0603125,5.93835938 1.0603125,5.65591406 L1.0603125,2.28860938 C1.0603125,1.59062109 1.62738672,1.02283594 2.32441016,1.02283594 L16.7100273,1.02283594 L16.7100273,4.31909766 C16.7100273,4.93675 17.2130664,5.43923047 17.8313789,5.43923047 L20.5169453,5.43923047 L20.5169453,16.8551094 L19.3937148,15.7318789 C19.3909219,15.7289336 19.3884844,15.7257852 19.3856406,15.7229414 C19.3827461,15.7200469 19.3795977,15.7176094 19.3766523,15.7148164 L16.9656094,13.3038242 C17.4588984,12.3617813 17.7384492,11.2909063 17.7384492,10.155793 C17.7384492,6.40310938 14.6859883,3.35008984 10.9339648,3.35008984 C7.18117969,3.35008984 4.12810938,6.40310938 4.12810938,10.155793 C4.12810938,11.947 4.82376172,13.5785 5.95857031,14.795168 C5.98192969,14.8263984 6.00894531,14.8549883 6.03936328,14.8804805 C7.27786719,16.1635703 9.01423047,16.9629688 10.9340156,16.9629688 C12.0684687,16.9629688 13.1386836,16.683418 14.080168,16.1901797 L16.4903477,18.6012734 C16.4932422,18.6043203 16.4957305,18.6075703 16.4987266,18.6105156 C16.5016719,18.6134609 16.5049219,18.6159492 16.507918,18.6188438 L20.5169961,22.6294961 L20.5169961,23.7114414 C20.5169961,24.4094297 19.9499219,24.9772148 19.2528984,24.9772148 L2.32441016,24.9772148 C1.62738672,24.9772148 1.0603125,24.4093789 1.0603125,23.7114414 L1.0603125,10.2148008 C1.0603125,9.93235547 0.831390625,9.70338281 0.548996094,9.70338281 C0.266601563,9.70338281 0.0376796875,9.93235547 0.0376796875,10.2148008 L0.0376796875,23.7113906 C0.0376796875,24.9733555 1.06351172,26 2.32441016,26 L19.2528984,26 C20.5137969,26 21.5396289,24.9733555 21.5396289,23.7113906 L21.5396289,23.4994297 C21.8198398,23.6430391 22.1041133,23.7068711 22.3787891,23.7068711 C22.9226055,23.7068203 23.428793,23.4590078 23.7907109,23.0967852 C24.5098242,22.3772148 24.7704844,21.10875 23.8371758,20.1752383 Z M17.7327109,4.31909766 L17.7327109,1.88779297 L19.9123438,4.41639453 L17.8314297,4.41639453 C17.7779063,4.41639453 17.7327109,4.37180859 17.7327109,4.31909766 Z M10.9339648,4.372875 C14.1220625,4.372875 16.7157656,6.96708594 16.7157656,10.1557422 C16.7157656,11.2123984 16.430832,12.2036992 15.9341914,13.0570781 C15.8980859,13.0998359 15.8699531,13.1470117 15.8500977,13.1967773 C15.7494492,13.3589727 15.6410312,13.5158867 15.5253516,13.6669102 C14.9174492,12.5424102 13.9265547,11.6843086 12.7537617,11.2335742 C13.4465703,10.6765039 13.8912109,9.82261719 13.8912109,8.86635547 C13.8912109,7.19103125 12.5291055,5.82801172 10.8548477,5.82801172 C9.17982812,5.82801172 7.8170625,7.19098047 7.8170625,8.86635547 C7.8170625,9.82160156 8.26094141,10.6747773 8.95288672,11.2318984 C8.55003906,11.3865781 8.16501562,11.5904648 7.8056875,11.8428984 C7.16274609,12.2946484 6.63523047,12.8743672 6.25035937,13.544832 C5.55902344,12.5917188 5.15069141,11.4206016 5.15069141,10.1556914 C5.15069141,6.96708594 7.74505469,4.372875 10.9339648,4.372875 Z M8.83964453,8.86640625 C8.83964453,7.75505859 9.74365234,6.85089844 10.8547969,6.85089844 C11.9651797,6.85089844 12.8685273,7.75505859 12.8685273,8.86640625 C12.8685273,9.97699219 11.9652305,10.8804922 10.8547969,10.8804922 C9.74365234,10.8804922 8.83964453,9.97694141 8.83964453,8.86640625 L8.83964453,8.86640625 Z M6.97394141,14.3671836 C7.67416406,12.880918 9.19435156,11.9032773 10.8547969,11.9032773 C12.5636367,11.9032773 14.1019531,12.9222031 14.780543,14.4702188 C14.5301914,14.6938594 14.2602891,14.8960703 13.973832,15.073957 C13.923457,15.0939648 13.8757227,15.1224531 13.8325078,15.1590664 C12.9797891,15.6554023 11.9895039,15.940082 10.9339141,15.940082 C9.40311328,15.940082 8.00952344,15.3418789 6.97394141,14.3671836 Z M15.6959258,15.0130703 C15.7310664,14.9860039 15.7621445,14.9547734 15.7887031,14.920293 C16.0117344,14.6928945 16.2190234,14.4500586 16.4086914,14.1933594 L18.3004453,16.0850625 L16.8606445,17.525168 L14.9693477,15.6331094 C15.2259453,15.4433906 15.4686797,15.2361016 15.6959258,15.0130703 Z M23.0674336,22.3736602 C22.7389805,22.7023672 22.2001914,22.8659844 21.6732852,22.3395859 L17.583668,18.2483945 L19.0236211,16.8081875 L20.6572539,18.4418203 C20.6637031,18.4485742 20.6702539,18.4551758 20.6770586,18.461625 L23.1140508,20.8985664 C23.6378594,21.4224766 23.3731875,22.0677539 23.0674336,22.3736602 Z" id="Shape"></path>
                            </g>
                        </g>
                    </g>
                </g>
            </g>
        </g>
    </g>
</svg>