<?xml version="1.0" encoding="UTF-8"?>
<svg width="45px" height="45px" viewBox="0 0 45 45" version="1.1" xmlns="http://www.w3.org/2000/svg" xmlns:xlink="http://www.w3.org/1999/xlink">
    <!-- Generator: sketchtool 61.2 (101010) - https://sketch.com -->
    <title>8EE3C842-CC9B-4907-BDB0-967F2C77AA04</title>
    <desc>Created with sketchtool.</desc>
    <g id="Desain" stroke="none" stroke-width="1" fill="none" fill-rule="evenodd">
        <g id="Agensip-Class" transform="translate(-566.000000, -2370.000000)">
            <g id="why" transform="translate(120.000000, 1813.000000)">
                <g id="text" transform="translate(0.000000, 107.000000)">
                    <g id="6" transform="translate(446.000000, 450.000000)">
                        <g id="ico-6">
                            <rect id="Rectangle" fill="#FCEBE9" x="0" y="0" width="45" height="45" rx="16"></rect>
                            <g id="1584892" transform="translate(9.500000, 10.007812)" fill="#F14B52" fill-rule="nonzero">
                                <path d="M25.9494727,13.6929609 C25.7160313,11.3449375 24.667043,9.13133203 22.9956289,7.45986719 C21.5672539,6.03154297 19.818957,5.11367187 17.9793555,4.70554297 L17.9793555,3.41529297 C18.7307148,3.22836719 19.289207,2.54825391 19.289207,1.73986719 C19.289207,0.787820312 18.5146914,0.0133046875 17.5626445,0.0133046875 L13.9063945,0.0133046875 C12.9543477,0.0133046875 12.179832,0.787820313 12.179832,1.73986719 C12.179832,2.54820312 12.7383242,3.22831641 13.4896328,3.41529297 L13.4896328,4.70914844 C11.655668,5.11900391 9.91316016,6.03560547 8.48884766,7.45991797 C8.17715234,7.77161328 7.88973047,8.09859375 7.62663281,8.43842187 C7.61388672,8.43745703 7.60114063,8.43649219 7.58814063,8.43649219 L3.96941797,8.43649219 C3.68900391,8.43649219 3.46160547,8.66383984 3.46160547,8.94430469 C3.46160547,9.22476953 3.68900391,9.45211719 3.96941797,9.45211719 L6.93565234,9.45211719 C6.56332422,10.075457 6.26310547,10.7300781 6.03458984,11.4039453 L0.5078125,11.4039453 C0.227398438,11.4039453 0,11.631293 0,11.9117578 C0,12.1922227 0.227398438,12.4195703 0.5078125,12.4195703 L5.747625,12.4195703 C5.60127344,13.0620039 5.51728125,13.7158125 5.49559766,14.3714492 L3.25,14.3714492 C2.96958594,14.3714492 2.7421875,14.5987969 2.7421875,14.8792617 C2.7421875,15.1597266 2.96958594,15.3870742 3.25,15.3870742 L5.51179688,15.3870742 C5.55465625,16.0443867 5.66033203,16.6982461 5.828875,17.3389531 L2.5390625,17.3389531 C2.25864844,17.3389531 2.03125,17.5663008 2.03125,17.8467656 C2.03125,18.1272305 2.25864844,18.3545781 2.5390625,18.3545781 L6.15296094,18.3545781 C6.651125,19.6724023 7.42965234,20.9075547 8.48884766,21.96675 C10.1618867,23.6397891 12.3777773,24.6890312 14.7282383,24.9212539 C15.0636992,24.9543633 15.3994141,24.9707656 15.7346719,24.9707656 C17.7162578,24.9707656 19.6726563,24.397293 21.3326953,23.3162617 C21.5677109,23.163207 21.6341836,22.8486172 21.4811289,22.6136016 C21.3280742,22.3785859 21.0134844,22.3121133 20.7784688,22.465168 C17.1447148,24.8314219 12.2781953,24.3198008 9.20699609,21.2486016 C5.60345703,17.6450625 5.60345703,11.781707 9.20699609,8.17811719 C12.8104844,4.57462891 18.6738398,4.57462891 22.2774297,8.17811719 C25.3445664,11.2453047 25.8589805,16.1076602 23.5005469,19.7396367 C23.3477969,19.9748555 23.4146758,20.2893945 23.6498438,20.4420938 C23.8851641,20.5948438 24.1996016,20.5279648 24.3523008,20.2927461 C25.6123867,18.3521406 26.1796133,16.008332 25.9494727,13.6929609 Z M13.195457,1.73991797 C13.195457,1.34788672 13.5143633,1.02898047 13.9063945,1.02898047 L17.5626445,1.02898047 C17.9546758,1.02898047 18.273582,1.34788672 18.273582,1.73991797 C18.273582,2.13194922 17.9546758,2.45085547 17.5626445,2.45085547 L17.471543,2.45085547 L13.9974453,2.45085547 L13.9063945,2.45085547 C13.5143633,2.45085547 13.195457,2.13189844 13.195457,1.73991797 Z M14.5052578,4.5345625 L14.5052578,3.46648047 L16.9637305,3.46648047 L16.9637305,4.53273438 C16.1473711,4.43564063 15.3214648,4.43625 14.5052578,4.5345625 Z" id="XMLID_389_"></path>
                                <path d="M22.6367578,21.0996094 C22.5026953,21.0996094 22.3721875,21.1539453 22.2777852,21.2483984 C22.1828242,21.3428516 22.1289453,21.4738672 22.1289453,21.6074219 C22.1289453,21.7409766 22.1828242,21.8719922 22.2777852,21.9664453 C22.3721875,22.0614063 22.5027461,22.1152344 22.6367578,22.1152344 C22.7703125,22.1152344 22.9008203,22.0614063 22.9957813,21.9664453 C23.0902344,21.8719922 23.1445703,21.7409766 23.1445703,21.6074219 C23.1445703,21.4738672 23.0902852,21.3428516 22.9957813,21.2483984 C22.9008203,21.1539453 22.7702617,21.0996094 22.6367578,21.0996094 Z" id="XMLID_391_"></path>
                                <path d="M15.7422383,6.83561328 C11.3985117,6.83561328 7.86459375,10.3694805 7.86459375,14.7132578 C7.86459375,19.0570352 11.3985117,22.5909023 15.7422383,22.5909023 C20.0859648,22.5909023 23.6198828,19.0570352 23.6198828,14.7132578 C23.6198828,10.3694805 20.0859648,6.83561328 15.7422383,6.83561328 Z M15.7422383,21.5752773 C11.9584766,21.5752773 8.88021875,18.4969688 8.88021875,14.7132578 C8.88021875,10.9295469 11.9584766,7.85123828 15.7422383,7.85123828 C19.526,7.85123828 22.6042578,10.9295469 22.6042578,14.7132578 C22.6042578,18.4969687 19.526,21.5752773 15.7422383,21.5752773 Z" id="XMLID_394_"></path>
                                <path d="M18.954457,10.7828906 L16.4392617,13.2980352 C16.2289258,13.1940352 15.9923359,13.1352812 15.7422383,13.1352812 C15.4920898,13.1352812 15.2555508,13.1940352 15.0452148,13.2980352 L13.9195469,12.1723672 C13.7211953,11.9740664 13.39975,11.9740664 13.2013477,12.1723672 C13.0030469,12.370668 13.0030469,12.6922148 13.2013477,12.8905156 L14.3270156,14.0161836 C14.2229648,14.2265195 14.1642617,14.4631094 14.1642617,14.713207 C14.1642617,15.583293 14.8721016,16.2911836 15.7422383,16.2911836 C16.612375,16.2911836 17.3202148,15.583293 17.3202148,14.713207 C17.3202148,14.4631094 17.2614609,14.2265195 17.1574609,14.0161836 L19.5988203,11.5748242 L19.5988203,11.5748242 L19.6726055,11.5010391 C19.8709063,11.3027383 19.8709063,10.9811914 19.6726055,10.7828906 C19.4743047,10.5845898 19.1528594,10.5845898 18.954457,10.7828906 Z M15.7422383,15.2756094 C15.432168,15.2756094 15.1798867,15.0233281 15.1798867,14.7132578 C15.1798867,14.4031875 15.432168,14.1509062 15.7422383,14.1509062 C16.0523086,14.1509062 16.3045898,14.4031875 16.3045898,14.7132578 C16.3045898,15.0233281 16.0523086,15.2756094 15.7422383,15.2756094 Z" id="XMLID_397_"></path>
                                <path d="M21.1717187,14.2116406 L20.7012305,14.2116406 C20.4208164,14.2116406 20.193418,14.4389883 20.193418,14.7194531 C20.193418,14.999918 20.4208164,15.2272656 20.7012305,15.2272656 L21.1717187,15.2272656 C21.4521328,15.2272656 21.6795312,14.999918 21.6795312,14.7194531 C21.6795312,14.4389883 21.4521328,14.2116406 21.1717187,14.2116406 Z" id="XMLID_398_"></path>
                                <path d="M10.7831953,14.19925 L10.3127578,14.19925 C10.0323438,14.19925 9.80494531,14.4265977 9.80494531,14.7070625 C9.80494531,14.9875273 10.0323438,15.214875 10.3127578,15.214875 L10.7831953,15.214875 C11.0636094,15.214875 11.2910078,14.9875273 11.2910078,14.7070625 C11.2910078,14.4265977 11.0636094,14.19925 10.7831953,14.19925 Z" id="XMLID_399_"></path>
                                <path d="M15.7484336,10.2620273 C16.0288477,10.2620273 16.2562461,10.0346797 16.2562461,9.75421484 L16.2562461,9.28377734 C16.2562461,9.0033125 16.0288477,8.77596484 15.7484336,8.77596484 C15.4680195,8.77596484 15.2406211,9.0033125 15.2406211,9.28377734 L15.2406211,9.75421484 C15.2406211,10.0346797 15.4680195,10.2620273 15.7484336,10.2620273 Z" id="XMLID_400_"></path>
                                <path d="M15.736043,19.1644883 C15.4556289,19.1644883 15.2282305,19.3918359 15.2282305,19.6723008 L15.2282305,20.1427383 C15.2282305,20.4232031 15.4556289,20.6505508 15.736043,20.6505508 C16.016457,20.6505508 16.2438555,20.4232031 16.2438555,20.1427383 L16.2438555,19.6723008 C16.2438555,19.3918359 16.016457,19.1644883 15.736043,19.1644883 Z" id="XMLID_424_"></path>
                                <path d="M0.5078125,17.33875 C0.374257813,17.33875 0.243242188,17.3930859 0.148789063,17.4875391 C0.0543359375,17.5819922 0,17.7130078 0,17.8465625 C0,17.980625 0.0542851562,18.1111328 0.148789063,18.2055859 C0.243292969,18.3000391 0.374257813,18.354375 0.5078125,18.354375 C0.641367187,18.354375 0.772382813,18.3000391 0.866785156,18.2055859 C0.961238281,18.1111328 1.015625,17.9801172 1.015625,17.8465625 C1.015625,17.7130078 0.961289063,17.5819922 0.866785156,17.4875391 C0.772382813,17.3930859 0.641367188,17.33875 0.5078125,17.33875 Z" id="XMLID_425_"></path>
                            </g>
                        </g>
                    </g>
                </g>
            </g>
        </g>
    </g>
</svg>