<?xml version="1.0" encoding="UTF-8"?>
<svg width="45px" height="45px" viewBox="0 0 45 45" version="1.1" xmlns="http://www.w3.org/2000/svg" xmlns:xlink="http://www.w3.org/1999/xlink">
    <!-- Generator: sketchtool 61.2 (101010) - https://sketch.com -->
    <title>8B32856A-EF93-45FA-933C-51282F220A11</title>
    <desc>Created with sketchtool.</desc>
    <g id="Desain" stroke="none" stroke-width="1" fill="none" fill-rule="evenodd">
        <g id="Agensip-Class" transform="translate(-566.000000, -2114.000000)">
            <g id="why" transform="translate(120.000000, 1813.000000)">
                <g id="text" transform="translate(0.000000, 107.000000)">
                    <g id="3" transform="translate(446.000000, 194.000000)">
                        <g id="ico-3">
                            <rect id="Rectangle" fill="#ECFBED" x="0" y="0" width="45" height="45" rx="16"></rect>
                            <g id="1067566" transform="translate(10.820312, 9.500000)" fill="#79C27B" fill-rule="nonzero">
                                <path d="M17.265625,20.109375 C16.9853125,20.109375 16.7578125,20.336875 16.7578125,20.6171875 C16.7578125,20.8975 16.9853125,21.125 17.265625,21.125 C17.5459375,21.125 17.7734375,20.8975 17.7734375,20.6171875 C17.7734375,20.336875 17.5459375,20.109375 17.265625,20.109375 Z" id="Path"></path>
                                <path d="M18.5159609,18.4672617 L16.1023281,17.6628867 L15.2358477,15.929875 C16.016457,15.1353516 16.5584453,14.0840781 16.741207,12.9875586 L16.8492695,12.3398438 L17.7734375,12.3398438 C18.6134609,12.3398438 19.296875,11.6564297 19.296875,10.8164062 L19.296875,7.6171875 C19.296875,3.41707031 15.8798047,0 11.6796875,0 C7.46880469,0 4.0625,3.40726953 4.0625,7.6171875 L4.0625,10.8164062 C4.0625,11.4783906 4.48708203,12.042875 5.078125,12.2525 L5.078125,12.8476562 C5.078125,13.6876797 5.76153906,14.3710938 6.6015625,14.3710938 L7.04752344,14.3710938 C7.26766016,14.8493008 7.55259375,15.2922148 7.89932813,15.6900859 C7.97123438,15.7727578 8.04623828,15.8528906 8.12307031,15.9308398 L7.25704688,17.6628867 L4.84336328,18.4673125 C2.0369375,19.4031094 0,22.3575117 0,25.4921875 C0,25.7726523 0.227347656,26 0.5078125,26 L22.8515625,26 C23.1319766,26 23.359375,25.7726523 23.359375,25.4921875 C23.359375,22.3575117 21.3224883,19.4031094 18.5159609,18.4672617 Z M18.28125,10.8164062 C18.28125,11.0964141 18.0534453,11.3242188 17.7734375,11.3242188 L16.9984141,11.3242188 C17.1275,10.3243359 17.2135234,9.26031641 17.2481055,8.21234375 C17.2491211,8.18278906 17.2499336,8.15404688 17.2508477,8.125 L18.28125,8.125 L18.28125,10.8164062 Z M5.5859375,11.3242188 C5.30592969,11.3242188 5.078125,11.0964141 5.078125,10.8164062 L5.078125,8.125 L6.10888281,8.125 C6.11055859,8.17796484 6.11233594,8.23118359 6.11431641,8.28475781 C6.11436719,8.28658594 6.11446875,8.28836328 6.11451953,8.29019141 C6.11451953,8.29034375 6.11451953,8.29049609 6.11451953,8.29064844 C6.15006641,9.30992969 6.23497266,10.3463242 6.36111328,11.324168 L5.5859375,11.324168 L5.5859375,11.3242188 Z M6.6015625,13.3554688 C6.32155469,13.3554688 6.09375,13.1276641 6.09375,12.8476563 L6.09375,12.3398438 L6.51005469,12.3398438 L6.61811719,12.9877617 C6.63873438,13.1109063 6.66407422,13.2335938 6.693375,13.3554688 L6.6015625,13.3554688 Z M6.09461328,7.109375 L5.09742188,7.109375 C5.35462891,3.70596484 8.19492578,1.015625 11.6796875,1.015625 C15.1489609,1.015625 18.00175,3.70560938 18.2619023,7.109375 L17.2648125,7.109375 C17.22825,4.30487891 14.9444648,2.03125 12.1342305,2.03125 L11.2252461,2.03125 C8.4150625,2.03125 6.131125,4.30487891 6.09461328,7.109375 Z M11.2251953,3.046875 L12.1341797,3.046875 C14.4096367,3.046875 16.2513203,4.90805859 16.2500007,7.18097656 C16.2500007,7.34078516 16.2487305,7.47992578 16.2460391,7.60652344 C16.2460391,7.60814844 16.2459883,7.60982422 16.2459883,7.6115 L15.6108164,7.52075391 C13.8852695,7.27436328 12.2560039,6.45973047 11.0231367,5.22686328 C10.9278711,5.13164844 10.7987344,5.078125 10.6640625,5.078125 C9.30028125,5.078125 7.99479688,5.69948437 7.13182031,6.74923438 C7.34449219,4.68147266 9.09253516,3.046875 11.2251953,3.046875 Z M7.74617187,13.3554688 C7.49196094,12.5098086 7.20108594,10.0215273 7.13679687,8.42699609 L7.82026172,7.51567578 C8.44796875,6.67900391 9.42454297,6.15915625 10.463375,6.09948828 C11.8302539,7.40030078 13.5985586,8.25931641 15.467207,8.52612109 L16.2148086,8.63296484 C16.1648398,9.69353125 16.0627188,10.7578047 15.916418,11.7366133 C15.9163672,11.736918 15.9163164,11.7372734 15.9162656,11.7376289 C15.86975,12.0523203 15.8330859,12.2548359 15.7394453,12.8204883 C15.4705078,14.4335547 14.2668906,15.8922461 12.6779961,16.2895078 C12.0240859,16.4527695 11.3351875,16.4527188 10.6816328,16.2895078 C9.68951953,16.0414922 8.77982422,15.3550312 8.19274219,14.3710938 L9.22796875,14.3710938 C9.43759375,14.9621367 10.0020273,15.3867188 10.6640625,15.3867188 L11.6796875,15.3867188 C12.5213867,15.3867188 13.203125,14.7050313 13.203125,13.8632812 C13.203125,13.0232578 12.5197109,12.3398438 11.6796875,12.3398438 L10.6640625,12.3398438 C9.98730078,12.3398438 9.43119531,12.7769687 9.22710547,13.3554688 L7.74617187,13.3554688 Z M10.6213555,17.3172187 C10.9696641,17.3905977 11.3247773,17.428125 11.6796875,17.428125 C11.9575117,17.428125 12.2353867,17.4048672 12.5101133,17.3597734 L11.6128086,18.3087227 L10.6213555,17.3172187 Z M10.914668,19.0469805 L9.30398828,20.7502852 C8.86056641,19.9015273 8.47955469,19.0181875 8.16704688,18.113875 L8.77190234,16.9041641 L10.914668,19.0469805 Z M14.5013984,16.7321172 L15.1922266,18.1138242 C14.8792109,19.0196602 14.4980977,19.9033047 14.0551328,20.7510469 L12.3312109,19.027125 L14.5013984,16.7321172 Z M10.15625,13.8632812 C10.15625,13.582918 10.3836484,13.3554688 10.6640625,13.3554688 L11.6796875,13.3554688 C11.9596953,13.3554688 12.1875,13.5832734 12.1875,13.8632812 C12.1875,14.1436953 11.9600508,14.3710938 11.6796875,14.3710938 L10.6640625,14.3710938 C10.3840547,14.3710938 10.15625,14.1432891 10.15625,13.8632812 Z M1.0359375,24.984375 C1.23718359,22.4687227 2.91139063,20.1821445 5.16455469,19.4307852 L7.30214063,18.7184258 C7.69376563,19.8013359 8.17892969,20.8538789 8.74752734,21.8536602 C8.74849219,21.8553867 8.74940625,21.8571133 8.75037109,21.8587891 C8.75037109,21.8588398 8.75042188,21.8588398 8.75042188,21.8588906 C9.16586328,22.589582 9.63345703,23.3036172 10.1404063,23.9814961 L10.7651172,24.984375 L1.0359375,24.984375 Z M11.6796875,24.5317109 L10.9909922,23.4260508 C10.9832734,23.4136602 10.9750469,23.401625 10.9663125,23.3899453 C10.5550859,22.8414063 10.1714844,22.2677305 9.82210938,21.6805469 L11.6331211,19.7653828 L13.5413789,21.6736406 C13.189668,22.2650898 12.8047461,22.8411523 12.3931641,23.3898438 C12.3682813,23.4230039 12.4035742,23.37075 11.6796875,24.5317109 Z M12.5942578,24.984375 L13.218918,23.9815469 C13.7281016,23.3010781 14.1990469,22.5813047 14.6186523,21.8420313 C14.6211914,21.8375625 14.6235781,21.8329922 14.6261172,21.8285234 C14.6264219,21.8279648 14.6267266,21.827457 14.6270312,21.8268984 C15.188418,20.8366641 15.6685039,19.7932617 16.0572344,18.7184258 L18.1947695,19.4307852 C20.4479844,20.1821445 22.1221914,22.4687227 22.3234375,24.984375 L12.5942578,24.984375 Z" id="Shape"></path>
                                <path d="M20.7972578,22.9293086 C20.4578867,22.2500078 19.9607891,21.6465234 19.3596914,21.1841094 C19.1373711,21.0130273 18.8185664,21.0546172 18.6475859,21.2769375 C18.4765547,21.4992578 18.5181445,21.8180625 18.7404141,21.9890938 C19.2205,22.3584258 19.6175078,22.8404922 19.8886289,23.3831914 C20.0142109,23.6345078 20.3194063,23.7356641 20.5698594,23.6105391 C20.8207188,23.4852109 20.9225352,23.1802188 20.7972578,22.9293086 Z" id="Path"></path>
                            </g>
                        </g>
                    </g>
                </g>
            </g>
        </g>
    </g>
</svg>