<?xml version="1.0" encoding="UTF-8"?>
<svg width="45px" height="45px" viewBox="0 0 45 45" version="1.1" xmlns="http://www.w3.org/2000/svg" xmlns:xlink="http://www.w3.org/1999/xlink">
    <!-- Generator: sketchtool 61.2 (101010) - https://sketch.com -->
    <title>E963F3D9-497D-44F3-A999-2E2CE1CF7DEF</title>
    <desc>Created with sketchtool.</desc>
    <g id="Desain" stroke="none" stroke-width="1" fill="none" fill-rule="evenodd">
        <g id="Agensip-Class" transform="translate(-122.000000, -2114.000000)">
            <g id="why" transform="translate(120.000000, 1813.000000)">
                <g id="text" transform="translate(0.000000, 107.000000)">
                    <g id="1" transform="translate(2.000000, 194.000000)">
                        <g id="ico-1">
                            <rect id="Rectangle" fill="#F8EFFD" x="0" y="0" width="45" height="45" rx="16"></rect>
                            <g id="944023" transform="translate(22.665728, 22.665728) rotate(45.000000) translate(-22.665728, -22.665728) translate(11.665728, 9.665728)" fill="#A179D0" fill-rule="nonzero">
                                <path d="M10.765625,8.37910938 C8.217625,8.37910938 6.14473438,10.452 6.14473438,13 C6.14473438,13.8971016 6.40199219,14.7350938 6.84617578,15.4447109 C6.85968359,15.4709141 6.87593359,15.4960508 6.89431641,15.5200703 C7.71981641,16.7838633 9.14671875,17.6208906 10.765625,17.6208906 C13.313625,17.6208906 15.3865156,15.5479492 15.3865156,13 C15.3865156,10.4520508 13.313625,8.37910938 10.765625,8.37910938 Z M7.4286875,14.3630195 C7.25618359,13.9422461 7.16030859,13.4822188 7.16030859,13 C7.16030859,11.0120156 8.77764063,9.39473438 10.765625,9.39473438 C11.9820898,9.39473438 13.0589062,10.0009102 13.7121563,10.9264492 L10.9231992,13.7154063 L9.85882422,12.651082 C9.66047266,12.4527813 9.33902734,12.452832 9.140625,12.651082 L7.4286875,14.3630195 Z M10.765625,16.6052656 C9.63503125,16.6052656 8.62478906,16.0817109 7.96326172,15.264793 L9.49975,13.7283047 L10.564125,14.7926289 C10.7624766,14.9909297 11.0839219,14.9908789 11.2823242,14.7926289 L14.1926992,11.8822539 C14.3078711,12.2343711 14.3709414,12.6098477 14.3709414,12.9999492 C14.3709414,14.9879336 12.7535586,16.6052656 10.765625,16.6052656 Z" id="Shape"></path>
                                <path d="M18.5780664,12.6496602 C18.4982891,10.168082 17.8038555,7.73444141 16.5573789,5.58258594 C15.2303125,3.29164062 13.3148945,1.38444922 11.0182109,0.0672851563 C10.8618047,-0.0224453125 10.6693945,-0.0224453125 10.5129883,0.0672851563 C8.21635547,1.38444922 6.3009375,3.29164062 4.97382031,5.58253516 C3.72734375,7.73439063 3.03291016,10.1680313 2.95313281,12.6496094 C1.17294531,13.4135625 0,15.1714063 0,17.1311055 L0,20.71875 C0,20.9992148 0.227398438,21.2265625 0.5078125,21.2265625 L7.96966016,21.2265625 C8.07909375,22.7540117 8.74783203,24.2170195 9.842625,25.2957148 L10.4091914,25.8539531 C10.5080117,25.9513008 10.636793,26 10.765625,26 C10.894457,26 11.0231875,25.9513008 11.1220586,25.8539531 L11.688625,25.2957148 C12.783418,24.2170195 13.4521562,22.7540625 13.5615898,21.2266133 L15.1328125,21.2266133 L15.1328125,23.8475352 C15.1328125,24.128 15.3602109,24.3553477 15.640625,24.3553477 C15.9210391,24.3553477 16.1484375,24.128 16.1484375,23.8475352 L16.1484375,21.2265625 L21.0234375,21.2265625 C21.3038516,21.2265625 21.53125,20.9992148 21.53125,20.71875 L21.53125,17.1311563 C21.53125,15.1714063 20.3582539,13.4135625 18.5780664,12.6496602 Z M10.765625,1.09672266 C12.3622891,2.05745312 13.7271875,3.31449219 14.8064922,4.7734375 L6.72475781,4.7734375 C7.8040625,3.31449219 9.16896094,2.05745312 10.765625,1.09672266 Z M1.015625,20.2109375 L1.015625,17.1311055 C1.015625,15.734875 1.76769531,14.4680352 2.9453125,13.7874648 L2.9453125,19.703125 C2.9453125,19.8811641 2.97628906,20.0519922 3.03265625,20.2109375 L1.015625,20.2109375 Z M10.9758086,24.5722344 L10.765625,24.7793203 L10.5554414,24.5722344 C9.65310938,23.683207 9.09563281,22.4833477 8.98843359,21.2265625 L12.5428164,21.2265625 C12.4355664,22.4833477 11.8780898,23.683207 10.9758086,24.5722344 Z M17.5703125,19.703125 C17.5703125,19.9831328 17.3425078,20.2109375 17.0625,20.2109375 L4.46875,20.2109375 C4.18874219,20.2109375 3.9609375,19.9831328 3.9609375,19.703125 L3.9609375,13.1314219 C3.9609375,11.2926328 4.324125,9.50086719 4.99829687,7.84570313 L7.29762109,7.84570313 C7.57803516,7.84570313 7.80543359,7.61835547 7.80543359,7.33789063 C7.80543359,7.05742578 7.57803516,6.83007813 7.29762109,6.83007813 L5.45964453,6.83007813 C5.63814062,6.47501563 5.83166797,6.12772266 6.03941406,5.7890625 L15.4918359,5.7890625 C16.8266211,7.96524219 17.5703125,10.5001406 17.5703125,13.1314219 L17.5703125,19.703125 Z M20.515625,20.2109375 L18.4985938,20.2109375 C18.5549609,20.0519922 18.5859375,19.8811641 18.5859375,19.703125 L18.5859375,13.7875156 C19.7635547,14.4680352 20.515625,15.734875 20.515625,17.1311563 L20.515625,20.2109375 Z" id="Shape"></path>
                                <path d="M9.49959766,6.97886719 C9.40519531,6.88441406 9.27417969,6.83007813 9.140625,6.83007813 C9.00707031,6.83007813 8.87605469,6.88441406 8.78160156,6.97886719 C8.68714844,7.07332031 8.6328125,7.20433594 8.6328125,7.33789063 C8.6328125,7.47144531 8.68709766,7.60246094 8.78160156,7.69691406 C8.87610547,7.79136719 9.00707031,7.84570313 9.140625,7.84570313 C9.27417969,7.84570313 9.40519531,7.79136719 9.49959766,7.69691406 C9.59405078,7.60246094 9.6484375,7.47144531 9.6484375,7.33789063 C9.6484375,7.20433594 9.59410156,7.07332031 9.49959766,6.97886719 Z" id="Path"></path>
                                <path d="M5.890625,22.5850117 C5.61021094,22.5850117 5.3828125,22.8123594 5.3828125,23.0928242 L5.3828125,24.6571914 C5.3828125,24.9376562 5.61021094,25.1650039 5.890625,25.1650039 C6.17103906,25.1650039 6.3984375,24.9376562 6.3984375,24.6571914 L6.3984375,23.0928242 C6.3984375,22.8123594 6.17103906,22.5850117 5.890625,22.5850117 Z" id="Path"></path>
                                <path d="M15.9995977,25.1331641 C15.9051953,25.0387109 15.7741797,24.984375 15.640625,24.984375 C15.5070703,24.984375 15.3760547,25.0387109 15.2816016,25.1331641 C15.1871484,25.2276172 15.1328125,25.3586328 15.1328125,25.4921875 C15.1328125,25.6257422 15.1870977,25.7567578 15.2816016,25.8512109 C15.3761055,25.9456641 15.5070703,26 15.640625,26 C15.7741797,26 15.9051953,25.9456641 15.9995977,25.8512109 C16.0940508,25.7567578 16.1484375,25.6257422 16.1484375,25.4921875 C16.1484375,25.3586328 16.0941016,25.2276172 15.9995977,25.1331641 Z" id="Path"></path>
                            </g>
                        </g>
                    </g>
                </g>
            </g>
        </g>
    </g>
</svg>