<?xml version="1.0" encoding="UTF-8"?>
<svg width="1440px" height="1804px" viewBox="0 0 1440 1804" version="1.1" xmlns="http://www.w3.org/2000/svg" xmlns:xlink="http://www.w3.org/1999/xlink">
    <!-- Generator: sketchtool 61.2 (101010) - https://sketch.com -->
    <title>9BCB7D8E-148A-4EBA-8E9E-4C4B78D7F061</title>
    <desc>Created with sketchtool.</desc>
    <g id="Desain" stroke="none" stroke-width="1" fill="none" fill-rule="evenodd">
        <g id="Agensip-Class" transform="translate(0.000000, -2799.000000)">
            <g id="testi" transform="translate(0.000000, 2799.000000)">
                <g id="begron-biru" transform="translate(0.000000, -0.000000)">
                    <path d="M359.999999,0.0249999999 L1440,0.1 L1440,0.1 L1440,1803.1 L0,1803 L0,360 C-0.0249991319,161.17749 161.152491,-7.71637352e-14 359.975001,-1.13686838e-13 C359.983334,-1.13688369e-13 359.991668,2.89351754e-07 359.999999,0.0249999999 Z" id="bg" fill="#2780FF" transform="translate(720.000000, 901.550000) scale(-1, 1) translate(-720.000000, -901.550000) "></path>
                    <path d="M449.999999,769.026667 L1440,769.1 L1440,769.1 L1440,1803.1 L90,1803 L90,1129 C89.9733343,930.17749 251.150824,769 449.973334,769 C449.982223,769 449.991112,769 449.999999,769.026667 Z" id="bg" fill="#2C6AC2"></path>
                </g>
            </g>
        </g>
    </g>
</svg>