<?xml version="1.0" encoding="UTF-8"?>
<svg width="128px" height="128px" viewBox="0 0 128 128" version="1.1" xmlns="http://www.w3.org/2000/svg" xmlns:xlink="http://www.w3.org/1999/xlink">
    <!-- Generator: sketchtool 61.2 (101010) - https://sketch.com -->
    <title>F28C5860-7A0F-481D-92ED-BEBF777A812C</title>
    <desc>Created with sketchtool.</desc>
    <g id="Desain" stroke="none" stroke-width="1" fill="none" fill-rule="evenodd">
        <g id="Agensip-Class" transform="translate(-162.000000, -1063.000000)">
            <g id="class" transform="translate(132.000000, 818.000000)">
                <g id="1" transform="translate(0.000000, 209.000000)">
                    <g id="illustraton" transform="translate(30.000000, 36.000000)">
                        <circle id="illustration" fill="#F9F9FA" cx="64" cy="64" r="64"></circle>
                        <g id="942796" transform="translate(31.000000, 31.000000)" fill-rule="nonzero">
                            <path d="M24.9146166,44.3324754 L24.9146166,33.947944 C24.9146166,31.4634773 23.7444402,29.8667876 22.0569567,28.8823668 C20.3694732,29.8667876 19.1992969,31.4634773 19.1992969,33.947944 L19.1992969,47.2252877 L22.0569567,47.2252877 C23.1945499,47.2252877 24.9146166,45.7564866 24.9146166,44.3324754 Z" id="Path" fill="#FFD0BB"></path>
                            <path d="M24.252702,36.0808594 L24.9146166,33.947944 C24.9146166,31.4634773 23.7444402,29.8667876 22.0569567,28.8823668 C20.3694732,29.8667876 19.1992969,31.4634773 19.1992969,33.947944 L19.1992969,38.7657188 L22.0569567,38.0538273 C23.1945499,38.0538273 24.252702,37.5048706 24.252702,36.0808594 Z" id="Path-Copy-5" fill="#94A0B1"></path>
                            <path d="M32.4771166,62.2074754 L32.4771166,55.0686779 C32.4771166,52.5842113 30.5874509,52.2000341 28.8999674,51.2156133 C27.2124839,52.2000341 26.7617969,49.3384773 26.7617969,51.822944 L26.7617969,65.1002877 L29.6194567,65.1002877 C30.7570499,65.1002877 32.4771166,63.6314866 32.4771166,62.2074754 Z" id="Path-Copy" fill="#FEDA9B"></path>
                            <path d="M64.4965697,33.1880471 L64.4965697,26.0492496 C64.4965697,23.564783 62.606904,23.1806058 60.9194206,22.196185 C59.231937,23.1806058 58.78125,20.319049 58.78125,22.8035156 L58.78125,36.0808594 L61.6389099,36.0808594 C62.7765031,36.0808594 64.4965697,34.6120583 64.4965697,33.1880471 Z" id="Path-Copy-2" fill="#FEDA9B"></path>
                            <path d="M64.4965697,59.5309093 L64.4965697,49.249911 C64.4965697,45.6718858 62.606904,45.1186098 60.9194206,43.700888 C59.231937,45.1186098 58.78125,40.9975152 58.78125,44.5755403 L58.78125,63.6970169 L61.6389099,63.6970169 C62.7765031,63.6970169 64.4965697,61.5817108 64.4965697,59.5309093 Z" id="Path-Copy-3" fill="#36D28F"></path>
                            <path d="M32.4771166,18.4451953 C30.0702083,17.4552856 28.5019282,16.0970649 27.7722765,14.3705332 C27.4564082,13.6231128 27.4564082,11.2704054 27.7722765,7.31241098 C27.7722765,3.73438581 25.8826108,3.18110981 24.1951273,1.76338803 C22.5076437,3.18110981 22.0569567,-0.939984847 22.0569567,2.63804032 L22.0569567,21.7595169 L24.9146166,21.7595169 C26.0522098,21.7595169 32.4771166,20.4959969 32.4771166,18.4451953 Z" id="Path-Copy-4" fill="#36D28F"></path>
                            <path d="M23.4248438,47.2846172 C23.3316445,47.2580625 23.2362539,47.2431094 23.1402188,47.2379531 C24.5522578,45.7538555 25.4218594,43.7489766 25.4218594,41.5436484 L25.4218594,34.7617617 C25.4218594,34.6997578 25.4159297,34.6393008 25.4075508,34.5797461 C25.4160586,34.4572852 25.4218594,34.3340508 25.4218594,34.2095273 L25.4218594,29.9187539 C25.4218594,29.2068047 24.8447461,28.6296914 24.1327969,28.6296914 L15.486668,28.6296914 C11.8457109,28.6296914 8.88370313,31.5918281 8.88370313,35.2326563 L8.88370313,41.5436484 C8.88370313,43.7489766 9.75317578,45.7538555 11.1653438,47.2379531 C11.0694375,47.2431094 10.9740469,47.2580625 10.8809766,47.2846172 C4.78925391,47.836207 0,52.9706719 0,59.2035469 L0,64.7109375 C0,65.4228867 0.577113281,66 1.2890625,66 L33.0163711,66 C33.7283203,66 34.3054336,65.4228867 34.3054336,64.7109375 L34.3054336,59.2035469 C34.3054336,52.9708008 29.5164375,47.8363359 23.4248438,47.2846172 Z M11.4618281,36.8673164 L11.4618281,35.2325273 C11.4618281,33.0132773 13.267418,31.2076875 15.486668,31.2076875 L22.8437344,31.2076875 L22.8437344,34.2093984 C22.8437344,35.7205664 21.6143555,36.9499453 20.1031875,36.9499453 L11.4618281,36.9499453 L11.4618281,36.8673164 Z M11.4618281,39.5280703 L20.1031875,39.5280703 C21.1050469,39.5280703 22.0428398,39.249375 22.8437344,38.7657188 L22.8437344,41.5435195 C22.8437344,44.6814844 20.2907461,47.2344727 17.1527813,47.2344727 C14.0148164,47.2344727 11.4618281,44.6814844 11.4618281,41.5435195 L11.4618281,39.5280703 Z M19.9584258,49.8127266 L17.1527813,52.6185 L14.3471367,49.8127266 L19.9584258,49.8127266 Z M31.7274375,63.421875 L31.7274375,63.421875 L2.578125,63.421875 L2.578125,60.84375 L7.92773438,60.84375 C8.63968359,60.84375 9.21679688,60.2666367 9.21679688,59.5546875 C9.21679688,58.8427383 8.63968359,58.265625 7.92773438,58.265625 L2.62517578,58.265625 C3.05817187,53.9194219 6.46735547,50.4388242 10.7791406,49.8907148 L16.2412852,55.3528594 C16.4829844,55.5945586 16.8109219,55.7304258 17.1527813,55.7304258 C17.4946406,55.7304258 17.8225781,55.5945586 18.0642773,55.3528594 L23.5264219,49.8907148 C28.1443594,50.477625 31.7274375,54.4287305 31.7274375,59.2035469 L31.7274375,63.421875 Z" id="Shape" fill="#000000"></path>
                            <path d="M55.8521166,16.1449754 L55.8521166,5.76044395 C55.8521166,3.27597733 54.6819402,1.67928764 52.9944567,0.694866836 C51.3069732,1.67928764 50.1367969,3.27597733 50.1367969,5.76044395 L50.1367969,19.0377877 L52.9944567,19.0377877 C54.1320499,19.0377877 55.8521166,17.5689866 55.8521166,16.1449754 Z" id="Path" fill="#FFD0BB"></path>
                            <path d="M55.190202,7.89335938 L55.8521166,5.76044395 C55.8521166,3.27597733 54.6819402,1.67928764 52.9944567,0.694866836 C51.3069732,1.67928764 50.1367969,3.27597733 50.1367969,5.76044395 L50.1367969,10.5782188 L52.9944567,9.86632727 C54.1320499,9.86632727 55.190202,9.31737061 55.190202,7.89335938 Z" id="Path-Copy-5" fill="#94A0B1"></path>
                            <path d="M55.119668,18.6550547 C55.0264687,18.6285 54.9309492,18.6135469 54.8347852,18.6083906 C56.2468242,17.124293 57.1162969,15.1194141 57.1162969,12.9140859 L57.1162969,6.13207031 C57.1162969,6.07006641 57.1103672,6.00960938 57.1019883,5.95005469 C57.1104961,5.82759375 57.1162969,5.70435938 57.1162969,5.57983594 L57.1162969,1.2890625 C57.1162969,0.577113281 56.5391836,0 55.8272344,0 L47.1811055,0 C43.5401484,0 40.5781406,2.96213672 40.5781406,6.60296484 L40.5781406,12.913957 C40.5781406,15.1192852 41.4476133,17.1241641 42.8596523,18.6082617 C42.7636172,18.613418 42.6679687,18.6283711 42.5747695,18.6549258 C36.4833047,19.2067734 31.6944375,24.3412383 31.6944375,30.5738555 L31.6944375,36.0811172 C31.6944375,36.7930664 32.2715508,37.3703086 32.9835,37.3703086 L43.3552969,37.3703086 C44.0672461,37.3703086 44.6443594,36.7930664 44.6443594,36.0811172 C44.6443594,35.369168 44.0672461,34.7920547 43.3552969,34.7920547 L34.2725625,34.7920547 L34.2725625,30.5739844 C34.2725625,25.799168 37.8555117,21.8480625 42.4734492,21.2611523 L47.9355937,26.7232969 C48.1873477,26.9750508 48.5172187,27.1008633 48.8470898,27.1008633 C49.1769609,27.1008633 49.5069609,26.9750508 49.7585859,26.7232969 L55.2207305,21.2611523 C59.8389258,21.8481914 63.421875,25.799168 63.421875,30.5739844 L63.421875,34.7921836 L53.9257383,34.7921836 C53.2137891,34.7921836 52.6366758,35.3692969 52.6366758,36.0812461 C52.6366758,36.7931953 53.2137891,37.3703086 53.9257383,37.3703086 L64.7109375,37.3703086 C65.4228867,37.3703086 66,36.7931953 66,36.0812461 L66,30.5739844 C66,24.3413672 61.2110039,19.2069023 55.119668,18.6550547 Z M48.8473477,23.9888086 L46.0417031,21.1831641 L51.6529922,21.1831641 L48.8473477,23.9888086 Z M54.5383008,12.913957 C54.5383008,16.0519219 51.9853125,18.6049102 48.8473477,18.6049102 C45.7093828,18.6049102 43.1563945,16.0520508 43.1563945,12.9140859 L43.1563945,10.8985078 L51.7977539,10.8985078 C52.7996133,10.8985078 53.7374062,10.6196836 54.5383008,10.1361563 L54.5383008,12.913957 L54.5383008,12.913957 Z M54.5383008,5.57983594 C54.5383008,7.09100391 53.3089219,8.32038281 51.7977539,8.32038281 L43.1563945,8.32038281 L43.1563945,8.23775391 L43.1563945,6.60296484 C43.1563945,4.38371484 44.9619844,2.578125 47.1812344,2.578125 L54.5383008,2.578125 L54.5383008,5.57983594 Z" id="Shape" fill="#000000"></path>
                            <path d="M49.7591016,35.1694922 C49.5193359,34.9297266 49.1867578,34.7917969 48.8477344,34.7917969 C48.5074219,34.7917969 48.1761328,34.9297266 47.9363672,35.1694922 C47.6953125,35.4092578 47.5586719,35.7418359 47.5586719,36.0808594 C47.5586719,36.4211719 47.6953125,36.7524609 47.9363672,36.9922266 C48.1761328,37.2332813 48.5074219,37.3699219 48.8477344,37.3699219 C49.1867578,37.3699219 49.5193359,37.2332813 49.7591016,36.9922266 C49.9988672,36.7524609 50.1367969,36.4211719 50.1367969,36.0808594 C50.1367969,35.7418359 49.9988672,35.4092578 49.7591016,35.1694922 Z" id="Path" fill="#000000"></path>
                            <path d="M34.4701758,18.0377227 L29.0791875,12.6467344 L29.0791875,6.4453125 C29.0791875,2.89136719 26.1878203,0 22.633875,0 L6.4453125,0 C2.89136719,0 0,2.89136719 0,6.4453125 L0,17.7890625 C0,21.3430078 2.89136719,24.234375 6.4453125,24.234375 L22.6337461,24.234375 C25.2987539,24.234375 27.6226758,22.6350352 28.5977227,20.2382812 L33.5585508,20.2382812 C34.0798477,20.2382812 34.5499687,19.9241367 34.7495156,19.442543 C34.9490625,18.9609492 34.8387188,18.4063945 34.4701758,18.0377227 Z M27.6573516,17.6601562 C27.0567773,17.6601562 26.5357383,18.0748477 26.4010312,18.6602109 C25.9952344,20.4241641 24.446168,21.65625 22.6337461,21.65625 L6.4453125,21.65625 C4.31294531,21.65625 2.578125,19.9214297 2.578125,17.7890625 L2.578125,6.4453125 C2.578125,4.31294531 4.31294531,2.578125 6.4453125,2.578125 L22.6337461,2.578125 C24.7661133,2.578125 26.5009336,4.31294531 26.5009336,6.4453125 L26.5009336,13.1806641 C26.5009336,13.5225234 26.6368008,13.8504609 26.8785,14.0921602 L30.4464961,17.6601562 L27.6573516,17.6601562 Z" id="Shape" fill="#000000"></path>
                            <path d="M59.5546875,41.765625 L43.3662539,41.765625 C40.7012461,41.765625 38.3773242,43.3649648 37.4022773,45.7617188 L32.4414492,45.7617188 C31.9201523,45.7617188 31.4500313,46.0758633 31.2504844,46.557457 C31.0509375,47.0390508 31.1612813,47.5936055 31.5298242,47.9622773 L36.9208125,53.3532656 L36.9208125,59.5546875 C36.9208125,63.1086328 39.8121797,66 43.366125,66 L59.5546875,66 C63.1086328,66 66,63.1086328 66,59.5546875 L66,48.2109375 C66,44.6569922 63.1086328,41.765625 59.5546875,41.765625 Z M63.421875,59.5546875 C63.421875,61.6870547 61.6870547,63.421875 59.5546875,63.421875 L43.3662539,63.421875 C41.2338867,63.421875 39.4990664,61.6870547 39.4990664,59.5546875 L39.4990664,52.8193359 C39.4990664,52.4774766 39.3631992,52.1495391 39.1215,51.9078398 L35.5535039,48.3398438 L38.3426484,48.3398438 C38.9432227,48.3398438 39.4642617,47.9251523 39.5989688,47.3397891 C40.0047656,45.5758359 41.553832,44.34375 43.3662539,44.34375 L59.5546875,44.34375 C61.6870547,44.34375 63.421875,46.0785703 63.421875,48.2109375 L63.421875,59.5546875 Z" id="Shape" fill="#000000"></path>
                            <path d="M57.2544844,50.452875 C56.7512344,49.9494961 55.935,49.9494961 55.4316211,50.452875 L52.0049062,53.8795898 L50.4114961,52.2861797 C49.9081172,51.7828008 49.0918828,51.7828008 48.588375,52.2861797 C48.0849961,52.7895586 48.0849961,53.605793 48.588375,54.1093008 L51.0932812,56.614207 C51.3450352,56.8659609 51.6749062,56.9917734 52.0047773,56.9917734 C52.3346484,56.9917734 52.6646484,56.8659609 52.9162734,56.614207 L57.2544844,52.2759961 C57.7578633,51.7726172 57.7578633,50.9563828 57.2544844,50.452875 Z" id="Path" fill="#000000"></path>
                            <path d="M20.3998008,8.54235938 C20.2474336,6.33200391 18.4656914,4.55026172 16.2553359,4.39789453 C15.0019805,4.31165625 13.8072773,4.73446875 12.892043,5.58885938 C11.9895703,6.43126172 11.4718828,7.62235547 11.4718828,8.85650391 C11.4720117,9.56858203 12.049125,10.1456953 12.7610742,10.1456953 C13.4730234,10.1456953 14.0501367,9.56858203 14.0501367,8.85663281 C14.0501367,8.32669922 14.2636055,7.83556641 14.6513555,7.47359766 C15.0384609,7.11214453 15.545707,6.93270703 16.0782188,6.97008984 C17.0113711,7.03441406 17.7635391,7.78658203 17.8278633,8.71973438 C17.8929609,9.66319922 17.2744688,10.4969648 16.3573008,10.7021836 C15.3533789,10.9267383 14.6522578,11.7995625 14.6522578,12.824625 L14.6522578,13.5123398 C14.6522578,14.2242891 15.2293711,14.8014023 15.9413203,14.8014023 C16.6532695,14.8014023 17.2303828,14.2242891 17.2303828,13.5123398 L17.2303828,13.1372227 C19.2276563,12.541418 20.5457227,10.6584844 20.3998008,8.54235938 Z" id="Path" fill="#000000"></path>
                            <path d="M16.8532031,17.5338281 C16.6134375,17.2940625 16.2808594,17.1561328 15.9418359,17.1561328 C15.6015234,17.1561328 15.2702344,17.2940625 15.0304687,17.5338281 C14.7894141,17.7735938 14.6527734,18.1061719 14.6527734,18.4451953 C14.6527734,18.7842188 14.7894141,19.1167969 15.0304687,19.3565625 C15.2702344,19.5963281 15.6015234,19.7342578 15.9418359,19.7342578 C16.2808594,19.7342578 16.6134375,19.5963281 16.8532031,19.3565625 C17.0929687,19.1167969 17.2308984,18.7842188 17.2308984,18.4451953 C17.2308984,18.1061719 17.0929687,17.7735938 16.8532031,17.5338281 Z" id="Path" fill="#000000"></path>
                            <path d="M13.9953516,58.6433203 C13.7555859,58.4035547 13.4230078,58.265625 13.0839844,58.265625 C12.7449609,58.265625 12.4123828,58.4035547 12.1726172,58.6433203 C11.9328516,58.8830859 11.7949219,59.2156641 11.7949219,59.5546875 C11.7949219,59.8937109 11.9328516,60.2262891 12.1726172,60.4660547 C12.4123828,60.7058203 12.7449609,60.84375 13.0839844,60.84375 C13.4230078,60.84375 13.7555859,60.7058203 13.9953516,60.4660547 C14.2351172,60.2262891 14.3730469,59.8937109 14.3730469,59.5546875 C14.3730469,59.2156641 14.2351172,58.8830859 13.9953516,58.6433203 Z" id="Path" fill="#000000"></path>
                        </g>
                    </g>
                </g>
            </g>
        </g>
    </g>
</svg>