<?xml version="1.0" encoding="UTF-8"?>
<svg width="128px" height="128px" viewBox="0 0 128 128" version="1.1" xmlns="http://www.w3.org/2000/svg" xmlns:xlink="http://www.w3.org/1999/xlink">
    <!-- Generator: sketchtool 61.2 (101010) - https://sketch.com -->
    <title>A3FADDB4-7E50-4D21-9845-89DD8DAD7219</title>
    <desc>Created with sketchtool.</desc>
    <g id="Desain" stroke="none" stroke-width="1" fill="none" fill-rule="evenodd">
        <g id="Agensip-Class" transform="translate(-570.000000, -1063.000000)">
            <g id="class" transform="translate(132.000000, 818.000000)">
                <g id="1-copy" transform="translate(408.000000, 209.000000)">
                    <g id="illustraton" transform="translate(30.000000, 36.000000)">
                        <circle id="illustration" fill="#F9F9FA" cx="64" cy="64" r="64"></circle>
                        <g id="1373067" transform="translate(31.000000, 34.600000)" fill-rule="nonzero">
                            <path d="M63.7441406,17.644043 L0.966796875,17.644043 L0.966796875,49.4214478 C0.966796875,53.8672027 4.5706329,57.4710389 9.01638787,57.4710389 L63.7441406,57.4710389 C64.4561463,57.4710389 65.0332031,56.8939819 65.0332031,56.1819764 L65.0332031,18.9331055 C65.0332031,18.2210998 64.4561463,17.644043 63.7441406,17.644043 Z" id="Path" fill="#FFFFFF"></path>
                            <path d="M65.0332031,18.933609 L65.0332031,56.1819764 C65.0332031,56.8934784 64.2697241,57.4710389 63.3291872,57.4710389 L59.0332031,57.4710389 C59.9737402,57.4710389 60.7372191,56.8934784 60.7372191,56.1819764 L60.7372191,18.933609 C60.7372191,18.2205963 59.9737402,17.6445465 59.0332031,17.6445465 L63.3291872,17.6445465 C64.2697241,17.6445465 65.0332031,18.2205963 65.0332031,18.933609 Z" id="Path" fill="#FFD0BB"></path>
                            <path d="M12.2919159,39.5722046 C12.2919159,40.2842101 11.714859,40.8612671 11.0028534,40.8612671 C11.0028534,40.3602448 6.68511896,42.9368592 6.68511896,32.9728088 L6.68511896,8.8859711 C6.68511896,4.44021613 6.55709845,1.03125 11.0028534,1.03125 C11.714859,1.03125 12.2919159,1.60830682 12.2919159,2.3203125 L12.2919159,39.5722046 Z" id="Path" fill="#FFD0BB"></path>
                            <path d="M41.3119355,27.9666138 L37.1607514,30.0301209 C36.697998,30.2602387 36.1919403,29.805542 36.3712006,29.3206329 L37.9790039,24.9725646 L41.3119355,27.9666138 Z" id="Path" fill="#FFFFFF"></path>
                            <path d="M42.2047119,27.7118224 L58.8643341,9.16543573 C59.2153016,8.77418515 59.1835785,8.17295841 58.7923279,7.82098389 L56.1411895,5.43974307 C55.7494355,5.08827206 55.1482086,5.12100213 54.7972412,5.5117492 L38.1371154,24.0586396 C37.7856445,24.4503936 37.8178711,25.051117 38.2091217,25.4025879 L40.8602599,27.7838287 C41.2520142,28.1358032 41.8527374,28.1035767 42.2047119,27.7118224 L42.2047119,27.7118224 Z" id="Path" fill="#FFFFFF"></path>
                            <path d="M58.8643341,9.16543573 C59.2153016,8.77418515 59.1835785,8.17295841 58.7923279,7.82098389 L57.6335254,7.07754423 L39.8225077,26.8109893 L40.8602599,27.7838287 C41.2520142,28.1358032 41.8527374,28.1035767 42.2047119,27.7118224 L58.8643341,9.16543573 Z" id="Path" fill="#FEDA9B"></path>
                            <path d="M57.0596466,11.174057 L58.8638306,9.16543573 C59.2153016,8.77468866 59.1835785,8.17295841 58.7918243,7.82148739 L58.5228265,7.32120685 C58.131576,6.96973583 57.5298456,7.0024659 57.1788782,7.39371661 L55.3746942,9.4023378 L57.0596466,11.174057 Z" id="Path" fill="#FEDA9B"></path>
                            <path d="M63.7441406,16.6772461 L53.4165344,16.6772461 L59.5833893,9.81198127 C59.9257965,9.43029785 60.0995178,8.93884277 60.0723267,8.42724609 C60.0446319,7.91514591 59.8195496,7.44483945 59.4383697,7.10243222 L56.7862244,4.7206879 C55.9991913,4.01371768 54.7836456,4.07867432 54.0771789,4.86570743 L43.4670868,16.6772461 L25.0012665,16.6772461 C24.4675141,16.6772461 24.0344696,17.109787 24.0344696,17.644043 C24.0344696,18.1782989 24.4675141,18.6108398 25.0012665,18.6108398 L41.7303771,18.6108398 L37.4170532,23.4125977 C37.074646,23.7937774 36.9014282,24.2857361 36.9286193,24.7973328 C36.9321441,24.8577576 36.9381866,24.9171753 36.9467469,24.976593 L35.464325,28.9852753 C35.2442779,29.5804596 35.4069214,30.2390899 35.879242,30.6630707 C36.1687774,30.9234009 36.5343476,31.0583496 36.9044494,31.0583496 C37.137085,31.0583496 37.3717346,31.0049744 37.5912781,30.8962098 L41.4217071,28.9918213 C41.445877,28.9928283 41.4695435,28.9953461 41.4942169,28.9953461 C41.5289611,28.9953461 41.5637055,28.994339 41.5989532,28.9923248 C42.1105499,28.9646301 42.5808564,28.7400513 42.9237671,28.358368 L51.6798248,18.6108398 L63.7441406,18.6108398 C63.9218902,18.6108398 64.0664062,18.7553559 64.0664062,18.9331055 L64.0664062,56.1819764 C64.0664062,56.359726 63.9218902,56.504242 63.7441406,56.504242 L56.7106934,56.504242 C56.1769409,56.504242 55.7438965,56.9367828 55.7438965,57.4710389 C55.7438965,58.0047912 56.1769409,58.4378358 56.7106934,58.4378358 L63.7441406,58.4378358 C64.9878846,58.4378358 66,57.4257202 66,56.1819764 L66,18.9331055 C66,17.688858 64.9878846,16.6772461 63.7441406,16.6772461 Z M58.1352081,8.53097541 L56.9866333,9.80895996 L54.3571473,7.44735724 L55.5057221,6.16886905 L58.1352081,8.53097541 Z M53.0650635,8.8859711 L54.8816315,10.4528384 L40.6432767,26.3076933 L38.8657379,24.6931 L53.0650635,8.8859711 Z M38.3299713,26.8109893 L39.4468232,27.8145447 L37.6240082,28.7204132 L38.3299713,26.8109893 Z M41.495224,27.0552062 L40.6432767,26.3076933 L54.8816315,10.4528384 L55.6945496,11.2475738 L41.495224,27.0552062 Z" id="Shape" fill="#000000"></path>
                            <path d="M52.5005951,56.504242 L9.01638788,56.504242 C5.11093146,56.504242 1.93359375,53.3269043 1.93359375,49.4214478 L1.93359375,48.9103546 C1.93359375,45.004898 5.11042782,41.828064 9.01588437,41.828064 L11.0028534,41.828064 C12.2471008,41.828064 13.2587128,40.8159484 13.2587128,39.5722046 L13.2587128,18.6108398 L20.7911681,18.6108398 C21.3254242,18.6108398 21.757965,18.1777954 21.757965,17.644043 C21.757965,17.109787 21.3254242,16.6772461 20.7911681,16.6772461 L13.2587128,16.6772461 L13.2587128,13.3201446 C13.2587128,12.7863922 12.8261719,12.3533477 12.2919159,12.3533477 C11.7581635,12.3533477 11.3251191,12.7863922 11.3251191,13.3201446 L11.3251191,39.5722046 C11.3251191,39.7499542 11.180603,39.8944702 11.0028534,39.8944702 L9.01588437,39.8944702 C6.14671329,39.8944702 3.58570859,41.2419434 1.93359375,43.3371734 L1.93359375,9.080841 C1.93359375,5.17538459 5.11093146,1.99804688 9.01638788,1.99804688 L11.0028534,1.99804688 C11.180603,1.99804688 11.3251191,2.1425629 11.3251191,2.3203125 L11.3251191,9.11004639 C11.3251191,9.64430234 11.7581635,10.0768433 12.2919159,10.0768433 C12.8261719,10.0768433 13.2587128,9.64430234 13.2587128,9.11004639 L13.2587128,2.3203125 C13.2587128,1.07656854 12.2471008,0.064453125 11.0028534,0.064453125 L9.01638788,0.064453125 C4.0449371,0.064453125 0,4.10888672 0,9.080841 L0,49.4214478 C0,54.3928985 4.0449371,58.4378358 9.01638788,58.4378358 L52.5005951,58.4378358 C53.0348511,58.4378358 53.467392,58.0047912 53.467392,57.4710389 C53.467392,56.9367828 53.0348511,56.504242 52.5005951,56.504242 Z" id="Path" fill="#000000"></path>
                            <path d="M56.0502234,39.5173188 L54.5672078,41.321512 C53.9595747,41.321512 53.467392,40.6389436 53.467392,39.7973057 L53.467392,29.0554811 C53.467392,28.2138432 53.9595747,28.8175965 54.5672078,28.8175965 L57.088852,30.1776581 C57.6964851,30.1776581 58.1352081,31.269614 58.1352081,32.1112519 L57.3446987,36.8664322 C57.3446987,37.7080701 56.6578565,39.5173188 56.0502234,39.5173188 Z" id="Path" fill="#36D28F"></path>
                            <path d="M51.5876769,26.8840027 C47.6384125,26.8840027 44.4001465,29.9797668 44.1685181,33.8716278 L39.7177276,33.8716278 C39.1839752,33.8716278 38.7509308,34.3046723 38.7509308,34.8384247 L38.7509308,45.8820649 C38.7509308,46.4163208 39.1839752,46.8488617 39.7177276,46.8488617 L50.7613678,46.8488617 C51.2956238,46.8488617 51.7281646,46.4163208 51.7281646,45.8820649 L51.7281646,41.7490082 C55.7630311,41.6734771 59.0219422,38.3702545 59.0219422,34.3182678 C59.0219422,30.2189483 55.6869965,26.8840027 51.5876769,26.8840027 L51.5876769,26.8840027 Z M49.7950744,39.5173188 C48.1016693,38.9317017 46.7813873,37.5414276 46.293457,35.8052216 L49.7950744,35.8052216 L49.7950744,39.5173188 Z M40.6845245,44.915268 L40.6845245,35.8052216 L44.3034668,35.8052216 C44.8754883,38.6109467 47.0326538,40.8456573 49.7950744,41.5324859 L49.7950744,44.915268 L40.6845245,44.915268 Z M51.7286681,39.8154145 L51.7286681,34.8384247 C51.7286681,34.3046723 51.2956238,33.8716278 50.7618713,33.8716278 L46.1071473,33.8716278 C46.3352509,31.0467682 48.7054139,28.8175965 51.5881806,28.8175965 C54.6210021,28.8175965 57.088852,31.2849426 57.088852,34.3182678 C57.0883485,37.3042603 54.6965332,39.7403869 51.7286681,39.8154145 Z" id="Shape" fill="#000000"></path>
                            <path d="M55.1794281,42.4202271 C54.6451721,42.4202271 54.2126313,42.852768 54.2126313,43.3870239 C54.2126313,43.9207764 54.6451721,44.3538208 55.1794281,44.3538208 L57.3300477,44.3538208 C57.8643036,44.3538208 58.2968445,43.9207764 58.2968445,43.3870239 C58.2968445,42.852768 57.8643036,42.4202271 57.3300477,42.4202271 L55.1794281,42.4202271 Z" id="Path" fill="#000000"></path>
                            <path d="M58.2968445,45.8820649 C58.2968445,45.3483124 57.8643036,44.915268 57.3300477,44.915268 L55.1794281,44.915268 C54.6451721,44.915268 54.2126313,45.3483124 54.2126313,45.8820649 C54.2126313,46.4163208 54.6451721,46.8488617 55.1794281,46.8488617 L57.3300477,46.8488617 C57.8643036,46.8488617 58.2968445,46.4163208 58.2968445,45.8820649 L58.2968445,45.8820649 Z" id="Path" fill="#000000"></path>
                            <path d="M17.6601562,26.4987945 L19.2070312,26.4987945 C19.7407837,26.4987945 20.1738281,26.0662537 20.1738281,25.5319976 C20.1738281,24.9982452 19.7407837,24.5652008 19.2070312,24.5652008 L17.6601562,24.5652008 C17.1264038,24.5652008 16.6933594,24.9982452 16.6933594,25.5319976 C16.6933594,26.0662537 17.1264038,26.4987945 17.6601562,26.4987945 Z" id="Path" fill="#000000"></path>
                            <path d="M17.6601562,29.3155976 L25.1231231,29.3155976 C25.6573791,29.3155976 26.08992,28.8825531 26.08992,28.3488007 C26.08992,27.8145447 25.6573791,27.3820038 25.1231231,27.3820038 L17.6601562,27.3820038 C17.1264038,27.3820038 16.6933594,27.8145447 16.6933594,28.3488007 C16.6933594,28.8825531 17.1264038,29.3155976 17.6601562,29.3155976 Z" id="Path" fill="#000000"></path>
                            <path d="M23.5762481,26.4987945 L25.1231231,26.4987945 C25.6573791,26.4987945 26.08992,26.0662537 26.08992,25.5319976 C26.08992,24.9982452 25.6573791,24.5652008 25.1231231,24.5652008 L23.5762481,24.5652008 C23.0424957,24.5652008 22.6094513,24.9982452 22.6094513,25.5319976 C22.6094513,26.0662537 23.0424957,26.4987945 23.5762481,26.4987945 Z" id="Path" fill="#000000"></path>
                            <path d="M31.039215,24.5652008 L29.49234,24.5652008 C28.9585877,24.5652008 28.5255431,24.9982452 28.5255431,25.5319976 C28.5255431,26.0662537 28.9585877,26.4987945 29.49234,26.4987945 L31.039215,26.4987945 C31.5734711,26.4987945 32.0060119,26.0662537 32.0060119,25.5319976 C32.0060119,24.9982452 31.5734711,24.5652008 31.039215,24.5652008 Z" id="Path" fill="#000000"></path>
                            <path d="M17.6601562,32.1112519 L25.1231231,32.1112519 C25.6573791,32.1112519 26.08992,31.6782074 26.08992,31.144455 C26.08992,30.610199 25.6573791,30.1776581 25.1231231,30.1776581 L17.6601562,30.1776581 C17.1264038,30.1776581 16.6933594,30.610199 16.6933594,31.144455 C16.6933594,31.6782074 17.1264038,32.1112519 17.6601562,32.1112519 Z" id="Path" fill="#000000"></path>
                            <path d="M16.6933594,33.9396056 C16.6933594,34.4738617 17.1264038,34.9064025 17.6601562,34.9064025 L29.49234,34.9064025 C30.0265961,34.9064025 30.4591369,34.4738617 30.4591369,33.9396056 C30.4591369,33.4058533 30.0265961,32.9728088 29.49234,32.9728088 L17.6601562,32.9728088 C17.1264038,32.9728088 16.6933594,33.4058533 16.6933594,33.9396056 Z" id="Path" fill="#000000"></path>
                            <path d="M32.0060119,36.7352599 C32.0060119,36.2015076 31.5734711,35.7684631 31.039215,35.7684631 L17.6601562,35.7684631 C17.1264038,35.7684631 16.6933594,36.2015076 16.6933594,36.7352599 C16.6933594,37.269516 17.1264038,37.7020568 17.6601562,37.7020568 L31.039215,37.7020568 C31.5734711,37.7020568 32.0060119,37.269516 32.0060119,36.7352599 Z" id="Path" fill="#000000"></path>
                            <path d="M21.2911835,41.2394257 C21.2911835,40.7051697 20.8581391,40.2726288 20.3243866,40.2726288 L17.6601562,40.2726288 C17.1264038,40.2726288 16.6933594,40.7051697 16.6933594,41.2394257 L16.6933594,43.9031524 C16.6933594,44.4374084 17.1264038,44.8699493 17.6601562,44.8699493 L20.3243866,44.8699493 C20.8581391,44.8699493 21.2911835,44.4374084 21.2911835,43.9031524 L21.2911835,41.2394257 Z M19.3575898,42.9368592 L18.6269531,42.9368592 L18.6269531,42.2062226 L19.3575898,42.2062226 L19.3575898,42.9368592 Z" id="Shape" fill="#000000"></path>
                            <path d="M27.6831207,41.2394257 C27.6831207,40.7051697 27.2500763,40.2726288 26.7163238,40.2726288 L24.0520936,40.2726288 C23.518341,40.2726288 23.0852967,40.7051697 23.0852967,41.2394257 L23.0852967,43.9031524 C23.0852967,44.4374084 23.518341,44.8699493 24.0520936,44.8699493 L26.7163238,44.8699493 C27.2500763,44.8699493 27.6831207,44.4374084 27.6831207,43.9031524 L27.6831207,41.2394257 Z M25.7495269,42.9368592 L25.0188904,42.9368592 L25.0188904,42.2062226 L25.7495269,42.2062226 L25.7495269,42.9368592 Z" id="Shape" fill="#000000"></path>
                            <path d="M34.0755615,41.2394257 C34.0755615,40.7051697 33.6425171,40.2726288 33.1087646,40.2726288 L30.4445343,40.2726288 C29.9102783,40.2726288 29.4777374,40.7051697 29.4777374,41.2394257 L29.4777374,43.9031524 C29.4777374,44.4374084 29.9102783,44.8699493 30.4445343,44.8699493 L33.1087646,44.8699493 C33.6425171,44.8699493 34.0755615,44.4374084 34.0755615,43.9031524 L34.0755615,41.2394257 Z M32.1419678,42.9368592 L31.4113311,42.9368592 L31.4113311,42.2062226 L32.1419678,42.2062226 L32.1419678,42.9368592 Z" id="Shape" fill="#000000"></path>
                            <path d="M20.3243866,47.0618592 L17.6601562,47.0618592 C17.1264038,47.0618592 16.6933594,47.4944 16.6933594,48.0286561 L16.6933594,50.6923828 C16.6933594,51.2266388 17.1264038,51.6591797 17.6601562,51.6591797 L20.3243866,51.6591797 C20.8581391,51.6591797 21.2911835,51.2266388 21.2911835,50.6923828 L21.2911835,48.0286561 C21.2911835,47.4944 20.8581391,47.0618592 20.3243866,47.0618592 Z M19.3575898,49.7255859 L18.6269531,49.7255859 L18.6269531,48.9949493 L19.3575898,48.9949493 L19.3575898,49.7255859 Z" id="Shape" fill="#000000"></path>
                            <path d="M26.7163238,47.0618592 L24.0520936,47.0618592 C23.518341,47.0618592 23.0852967,47.4944 23.0852967,48.0286561 L23.0852967,50.6923828 C23.0852967,51.2266388 23.518341,51.6591797 24.0520936,51.6591797 L26.7163238,51.6591797 C27.2500763,51.6591797 27.6831207,51.2266388 27.6831207,50.6923828 L27.6831207,48.0286561 C27.6831207,47.4944 27.2500763,47.0618592 26.7163238,47.0618592 Z M25.7495269,49.7255859 L25.0188904,49.7255859 L25.0188904,48.9949493 L25.7495269,48.9949493 L25.7495269,49.7255859 Z" id="Shape" fill="#000000"></path>
                            <path d="M30.4445343,51.6591797 L33.1087646,51.6591797 C33.6425171,51.6591797 34.0755615,51.2266388 34.0755615,50.6923828 L34.0755615,48.0281524 C34.0755615,47.4944 33.6425171,47.0613556 33.1087646,47.0613556 L30.4445343,47.0613556 C29.9102783,47.0613556 29.4777374,47.4944 29.4777374,48.0281524 L29.4777374,50.6923828 C29.4777374,51.2266388 29.9102783,51.6591797 30.4445343,51.6591797 Z M31.4113311,48.9954529 L32.1419678,48.9954529 L32.1419678,49.7255859 L31.4113311,49.7255859 L31.4113311,48.9954529 Z" id="Shape" fill="#000000"></path>
                        </g>
                    </g>
                </g>
            </g>
        </g>
    </g>
</svg>