<?xml version="1.0" encoding="UTF-8"?>
<svg width="128px" height="128px" viewBox="0 0 128 128" version="1.1" xmlns="http://www.w3.org/2000/svg" xmlns:xlink="http://www.w3.org/1999/xlink">
    <!-- Generator: sketchtool 61.2 (101010) - https://sketch.com -->
    <title>C1C01F79-4054-4CC8-99F2-E7E1EF3319BC</title>
    <desc>Created with sketchtool.</desc>
    <g id="Desain" stroke="none" stroke-width="1" fill="none" fill-rule="evenodd">
        <g id="Agensip-Class" transform="translate(-978.000000, -1063.000000)">
            <g id="class" transform="translate(132.000000, 818.000000)">
                <g id="1-copy-2" transform="translate(816.000000, 209.000000)">
                    <g id="illustraton" transform="translate(30.000000, 36.000000)">
                        <circle id="illustration" fill="#F9F9FA" cx="64" cy="64" r="64"></circle>
                        <g id="1289280" transform="translate(34.437500, 31.000000)" fill-rule="nonzero">
                            <path d="M57.7494965,18.1757812 L57.7494965,7.4765625 C57.7494965,4.99209588 56.2846984,2.85104377 54.1723481,1.86662296 C52.0599976,2.85104377 50.5951996,4.99209588 50.5951996,7.4765625 L50.5951996,20.7539062 L55.1713715,20.7539062 C56.5953827,20.7539062 57.7494965,19.5997925 57.7494965,18.1757812 Z" id="Path" fill="#FEDA9B"></path>
                            <path d="M51.5619965,1.2890625 L7.4765625,1.2890625 C4.05903622,1.2890625 1.2890625,4.05903622 1.2890625,7.4765625 L1.2890625,55.1713715 C1.2890625,56.5953827 2.44317627,57.7494965 3.8671875,57.7494965 L45.3744965,57.7494965 L45.3744965,7.4765625 C45.3744965,4.05903622 48.1449737,1.2890625 51.5619965,1.2890625" id="Path" fill="#FFFFFF"></path>
                            <path d="M54.4412384,53.8304443 L54.4412384,40.1276093 C54.4412384,36.0036163 52.9865112,32.0301818 50.3630676,28.8911133 L50.3630676,49.0186157 C50.3630676,50.9219971 48.8202209,52.4643402 46.9168397,52.4643402 C45.9525605,52.4643402 45.0602875,52.0615082 44.4238129,51.3938141 C43.7964019,52.0529481 42.910675,52.4643402 41.928772,52.4643402 C40.4458466,52.4643402 39.1285858,51.5151672 38.65979,50.1082764 L36.716629,44.2798004 C36.6879272,44.192688 36.6536865,44.1096039 36.6169281,44.0275269 C36.463852,44.3684234 36.3767394,44.7460785 36.3767394,45.1438751 L36.3767394,55.1391449 C36.3767394,56.8622589 36.7176361,58.5682525 37.3807983,60.1589355 L39.2771301,64.710434 L51.9920196,64.710434 C53.6043549,61.3105316 54.4412384,57.5939025 54.4412384,53.8304443 L54.4412384,53.8304443 Z" id="Path" fill="#FFD0BB"></path>
                            <g id="Group" transform="translate(12.246094, 8.250000)" fill="#36D28F">
                                <path d="M3.29919434,8.25 L0.997512785,8.25 C0.493972746,8.25 0.0861053789,7.841629 0.0861053789,7.33859259 L0.0861053789,0.911407406 C0.0861053789,0.407867367 0.493972746,0 0.997512785,0 L3.29919434,0 C3.80273438,0 4.21110538,0.407867367 4.21110538,0.911407406 L4.21110538,7.33859259 C4.21110538,7.841629 3.80273438,8.25 3.29919434,8.25 Z" id="Path"></path>
                                <path d="M3.29919434,23.71875 L0.997512785,23.71875 C0.493972746,23.71875 0.0861053789,23.310379 0.0861053789,22.806839 L0.0861053789,16.3801574 C0.0861053789,15.8766174 0.493972746,15.46875 0.997512785,15.46875 L3.29919434,15.46875 C3.80273438,15.46875 4.21110538,15.8766174 4.21110538,16.3801574 L4.21110538,22.806839 C4.21110538,23.310379 3.80273438,23.71875 3.29919434,23.71875 Z" id="Path"></path>
                                <path d="M3.29919434,39.1869965 L0.997512785,39.1869965 C0.493972746,39.1869965 0.0861053789,38.779129 0.0861053789,38.275589 L0.0861053789,31.8489074 C0.0861053789,31.3453674 0.493972746,30.9375 0.997512785,30.9375 L3.29919434,30.9375 C3.80273438,30.9375 4.21110538,31.3453674 4.21110538,31.8489074 L4.21110538,38.275589 C4.21110538,38.779129 3.80273438,39.1869965 3.29919434,39.1869965 Z" id="Path"></path>
                            </g>
                            <path d="M51.5619965,-2.84217094e-14 L7.4765625,-2.84217094e-14 C3.35408017,-2.84217094e-14 0,3.35408017 0,7.4765625 L0,55.1713715 C0,57.3038635 1.7346954,59.038559 3.8671875,59.038559 L20.7967071,59.038559 C21.5087128,59.038559 22.0857696,58.461502 22.0857696,57.7494965 C22.0857696,57.0374908 21.5087128,56.460434 20.7967071,56.460434 L3.8671875,56.460434 C3.15618896,56.460434 2.578125,55.88237 2.578125,55.1713715 L2.578125,7.4765625 C2.578125,4.77557373 4.77557373,2.578125 7.4765625,2.578125 L45.9208374,2.578125 C44.7793121,3.89135742 44.085434,5.60389706 44.085434,7.4765625 L44.085434,49.0186157 C44.085434,50.2079774 43.1181336,51.1752777 41.928772,51.1752777 C40.9992371,51.1752777 40.1769561,50.5826111 39.8823853,49.7009125 L37.9397277,43.871933 C37.3913726,42.2263642 35.8570861,41.1210937 34.1228944,41.1210937 C31.9042969,41.1210937 30.0996094,42.9257812 30.0996094,45.1438751 L30.0996094,46.147934 L23.4181366,46.147934 C22.7061309,46.147934 22.1290741,46.7254943 22.1290741,47.4369965 C22.1290741,48.149002 22.7061309,48.726059 23.4181366,48.726059 L30.0996094,48.726059 L30.0996094,55.1391449 C30.0996094,57.0425263 30.4707184,58.8985748 31.2028656,60.6549225 L33.0991974,65.2064209 C33.3056488,65.7014008 33.7845154,66 34.289566,66 C34.4547271,66 34.6229096,65.9682769 34.7845459,65.9008026 C35.4421691,65.6268769 35.7528534,64.8720703 35.4789276,64.2149506 L33.5825958,59.6634521 C32.9823761,58.2228241 32.6777344,56.7006226 32.6777344,55.1396484 L32.6777344,45.1443787 C32.6777344,44.3472748 33.3257904,43.6992187 34.1228944,43.6992187 C34.7457733,43.6992187 35.2971496,44.0960083 35.4940338,44.6871642 L37.4366913,50.5161437 C38.0822296,52.4522553 39.8874207,53.7534027 41.928772,53.7534027 C44.539627,53.7534027 46.663559,51.6294708 46.663559,49.0186157 L46.663559,26.9177398 L48.3861694,28.6368256 C51.4597778,31.7043915 53.1521759,35.7855835 53.1521759,40.1276093 L53.1521759,53.8304443 C53.1521759,57.379898 52.3480225,60.951004 50.8273315,64.1580506 C50.5221863,64.8010712 50.7966156,65.5699767 51.4396362,65.8751221 C52.0826568,66.1802674 52.8515625,65.9063416 53.1567078,65.2628174 C54.8400421,61.7128602 55.7303009,57.7595673 55.7303009,53.8304443 L55.7303009,40.1276093 C55.7303009,35.0957336 53.7690125,30.3669892 50.2074737,26.8119965 L46.663559,23.2746277 L46.663559,22.0429687 L55.1713715,22.0429687 C57.3038635,22.0429687 59.038559,20.3082733 59.038559,18.1757812 L59.038559,7.4765625 C59.038559,3.35408017 55.6849823,-2.84217094e-14 51.5619965,-2.84217094e-14 Z M56.460434,18.1757812 C56.460434,18.8862763 55.88237,19.4648437 55.1713715,19.4648437 L46.663559,19.4648437 L46.663559,7.4765625 C46.663559,4.77557373 48.8610077,2.578125 51.5619965,2.578125 C54.2629853,2.578125 56.460434,4.77557373 56.460434,7.4765625 L56.460434,18.1757812 Z" id="Shape" fill="#000000"></path>
                            <path d="M26.4257812,56.460434 C26.0863953,56.460434 25.7540588,56.5984039 25.5143738,56.838089 C25.2746887,57.0782775 25.1367188,57.4106141 25.1367188,57.7494965 C25.1367188,58.0888824 25.2746887,58.4212188 25.5143738,58.6609039 C25.7540588,58.900589 26.0863953,59.038559 26.4257812,59.038559 C26.7646637,59.038559 27.0970001,58.900589 27.3371887,58.6609039 C27.5768738,58.4212188 27.7148438,58.0888824 27.7148438,57.7494965 C27.7148438,57.4106141 27.5768738,57.0782775 27.3371887,56.838089 C27.0970001,56.5984039 26.7646637,56.460434 26.4257812,56.460434 Z" id="Path" fill="#000000"></path>
                            <path d="M17.7462616,9.5390625 C17.7462616,8.11756894 16.5896301,6.9609375 15.1681366,6.9609375 L9.49626163,6.9609375 C8.07426456,6.9609375 6.91813663,8.11756894 6.91813663,9.5390625 L6.91813663,15.2109375 C6.91813663,16.6324311 8.07426456,17.7890625 9.49626163,17.7890625 L15.1681366,17.7890625 C16.5896301,17.7890625 17.7462616,16.6324311 17.7462616,15.2109375 L17.7462616,9.5390625 Z M15.1681366,15.2109375 L9.49626163,15.2109375 L9.49626163,9.5390625 L15.1681366,9.5390625 L15.1696473,15.2109375 C15.1696473,15.2109375 15.1691436,15.2109375 15.1681366,15.2109375 Z" id="Shape" fill="#000000"></path>
                            <path d="M17.7462616,25.0078125 C17.7462616,23.5863189 16.5896301,22.4296875 15.1681366,22.4296875 L9.49626163,22.4296875 C8.07426456,22.4296875 6.91813663,23.5863189 6.91813663,25.0078125 L6.91813663,30.6796875 C6.91813663,32.1011811 8.07426456,33.2578125 9.49626163,33.2578125 L15.1681366,33.2578125 C16.5896301,33.2578125 17.7462616,32.1011811 17.7462616,30.6796875 L17.7462616,25.0078125 Z M15.1681366,30.6796875 L9.49626163,30.6796875 L9.49626163,25.0078125 L15.1681366,25.0078125 L15.1696473,30.6796875 C15.1696473,30.6796875 15.1691436,30.6796875 15.1681366,30.6796875 Z" id="Shape" fill="#000000"></path>
                            <path d="M15.1681366,37.8984375 L9.49626163,37.8984375 C8.07426456,37.8984375 6.91813663,39.0545654 6.91813663,40.4765625 L6.91813663,46.147934 C6.91813663,47.5699311 8.07426456,48.726059 9.49626163,48.726059 L15.1681366,48.726059 C16.5896301,48.726059 17.7462616,47.5699311 17.7462616,46.147934 L17.7462616,40.4765625 C17.7462616,39.0545654 16.5896301,37.8984375 15.1681366,37.8984375 Z M15.1681366,46.147934 L9.49626163,46.147934 L9.49626163,40.4765625 L15.1681366,40.4765625 L15.1696473,46.147934 C15.1696473,46.147934 15.1691436,46.147934 15.1681366,46.147934 Z" id="Shape" fill="#000000"></path>
                            <path d="M38.1990509,17.7890625 C38.9110566,17.7890625 39.4881134,17.2120057 39.4881134,16.5 C39.4881134,15.7879943 38.9110566,15.2109375 38.1990509,15.2109375 L29.3125763,15.2109375 C28.6005707,15.2109375 28.0235138,15.7879943 28.0235138,16.5 C28.0235138,17.2120057 28.6005707,17.7890625 29.3125763,17.7890625 L38.1990509,17.7890625 Z" id="Path" fill="#000000"></path>
                            <path d="M23.4181366,17.7890625 C23.7575226,17.7890625 24.089859,17.6510926 24.329544,17.4114074 C24.5692291,17.1717225 24.7071991,16.8388824 24.7071991,16.5 C24.7071991,16.1611176 24.5692291,15.8282775 24.329544,15.5885926 C24.089859,15.3489074 23.7575226,15.2109375 23.4181366,15.2109375 C23.0777436,15.2109375 22.7464142,15.3489074 22.5067291,15.5885926 C22.266037,15.8282775 22.1290741,16.1611176 22.1290741,16.5 C22.1290741,16.8388824 22.266037,17.1717225 22.5067291,17.4114074 C22.7464142,17.6510926 23.0777436,17.7890625 23.4181366,17.7890625 Z" id="Path" fill="#000000"></path>
                            <path d="M23.417633,33.2578125 L38.1990509,33.2578125 C38.9110566,33.2578125 39.4881134,32.6807557 39.4881134,31.96875 C39.4881134,31.2567443 38.9110566,30.6796875 38.1990509,30.6796875 L23.417633,30.6796875 C22.7061309,30.6796875 22.1285705,31.2567443 22.1285705,31.96875 C22.1285705,32.6807557 22.7061309,33.2578125 23.417633,33.2578125 L23.417633,33.2578125 Z" id="Path" fill="#000000"></path>
                        </g>
                    </g>
                </g>
            </g>
        </g>
    </g>
</svg>