<?xml version="1.0" encoding="UTF-8"?>
<svg width="20px" height="14px" viewBox="0 0 20 14" version="1.1" xmlns="http://www.w3.org/2000/svg" xmlns:xlink="http://www.w3.org/1999/xlink">
    <!-- Generator: sketchtool 61.2 (101010) - https://sketch.com -->
    <title>3B1494FD-7EEE-4160-A178-90E022B7725F</title>
    <desc>Created with sketchtool.</desc>
    <g id="Desain" stroke="none" stroke-width="1" fill="none" fill-rule="evenodd">
        <g id="Agensip-Class" transform="translate(-162.000000, -1269.000000)" fill="#6D7385" fill-rule="nonzero">
            <g id="class" transform="translate(132.000000, 818.000000)">
                <g id="1" transform="translate(0.000000, 209.000000)">
                    <g id="476700" transform="translate(30.000000, 242.000000)">
                        <path d="M16.8193617,6.30223404 C16.1706702,5.97792553 14.9544202,5.97416489 14.9029628,5.97416489 C14.7487394,5.97416489 14.6237074,6.09919681 14.6237074,6.25342021 C14.6237074,6.40764362 14.7487394,6.53267553 14.9029628,6.53267553 C15.2168085,6.53271277 16.1280372,6.58104255 16.5695957,6.80180319 C16.6096968,6.82187234 16.6522926,6.83132979 16.6942553,6.83132979 C16.7966862,6.83132979 16.8953191,6.77473404 16.9442447,6.67692021 C17.0132394,6.53896809 16.9573138,6.37122872 16.8193617,6.30223404 Z" id="Path"></path>
                        <path d="M18.211617,10.2781223 L17.0582926,9.94860106 C17.0085106,9.93437766 16.973734,9.88828191 16.973734,9.83648936 L16.973734,9.4515266 C17.0675638,9.38651596 17.1570745,9.31376064 17.2407394,9.23255319 C17.6462181,8.83906383 17.8695106,8.31127128 17.8695106,7.74635638 L17.8695106,7.2151383 L17.9810266,6.99214362 C18.1034149,6.74732979 18.1680904,6.47325 18.1680904,6.19957979 L18.1680904,4.76048404 C18.1680904,4.60626064 18.0430585,4.48122872 17.8888351,4.48122872 L15.2015426,4.48122872 C14.2243723,4.48122872 13.4293511,5.27625 13.4293511,6.25342021 L13.4293511,6.27006383 C13.4293511,6.4976383 13.4831543,6.72554787 13.5849149,6.92906915 L13.7279309,7.21510106 L13.7279309,7.67121809 C13.7279309,8.39407979 14.0841489,9.04265957 14.6237074,9.43294681 L14.6237819,9.83641489 C14.6237819,9.89863298 14.6237819,9.92439894 14.3931915,9.99030319 L13.8304362,10.1510798 L12.2025266,9.55913298 C12.2083723,9.48231915 12.1824574,9.40420213 12.1264202,9.34533511 L11.6062234,8.79881383 L11.6062234,7.88136702 C11.6612181,7.83605319 11.7154309,7.78951064 11.7679681,7.74028723 C12.4242181,7.12518085 12.8005798,6.25673404 12.8005798,5.35764362 L12.8005798,4.62495213 C12.9987394,4.19374468 13.0991596,3.73744149 13.0991596,3.26751064 L13.0991596,0.281712766 C13.0991596,0.127489362 12.9741277,0.00245744681 12.8199043,0.00245744681 L8.63967553,0.00245744681 C7.16855851,0.00245744681 5.97174468,1.19930851 5.97174468,2.6703883 L5.97174468,3.26758511 C5.97174468,3.73751596 6.07216489,4.19381915 6.27032447,4.6250266 L6.27032447,5.25543617 C6.27032447,6.29932979 6.73448404,7.23978723 7.46468085,7.85980851 L7.46468085,8.79885106 L6.94448404,9.34537234 C6.88844681,9.40423936 6.86253191,9.48235638 6.86837766,9.55917021 L5.15021277,10.1839202 C5.02570213,10.2291968 4.91001596,10.2905213 4.80497872,10.3648032 L4.53518085,10.2299043 C5.33831915,9.88031383 5.59273936,9.3886383 5.60495213,9.36421277 C5.64427128,9.2856117 5.64427128,9.19304787 5.60495213,9.11444681 C5.40362766,8.71179787 5.37923936,7.97378191 5.35965426,7.38079255 C5.3531383,7.18337766 5.34695745,6.99687234 5.33515426,6.83080851 C5.23994681,5.49135106 4.22167021,4.48122872 2.96651064,4.48122872 C1.71135106,4.48122872 0.693037234,5.49131383 0.597867021,6.83080851 C0.58606383,6.99690957 0.579882979,7.18341489 0.573367021,7.38086702 C0.553781915,7.97381915 0.529356383,8.71176064 0.328069149,9.11440957 C0.28875,9.19301064 0.28875,9.28557447 0.328069149,9.36417553 C0.340281915,9.38860106 0.594180851,9.87927128 1.39892021,10.2292713 L0.649510638,10.6039574 C0.24887234,10.8044255 0,11.2071117 0,11.655 L0,13.7181011 C0,13.8723245 0.125031915,13.9973564 0.279255319,13.9973564 C0.433478723,13.9973564 0.558510638,13.8723245 0.558510638,13.7181011 L0.558510638,11.655 C0.558510638,11.4199787 0.689090426,11.2086755 0.899276596,11.1035638 L1.8324734,10.636984 L2.15707979,10.9454681 C2.38405851,11.1611649 2.67522872,11.2689574 2.96651064,11.2689574 C3.25771809,11.2689574 3.54903723,11.1610904 3.77594149,10.9454681 L4.10051064,10.6370213 L4.40478723,10.7891596 C4.26151064,11.0184096 4.18019149,11.2872394 4.18019149,11.5688404 L4.18019149,13.7181755 C4.18019149,13.8723989 4.3052234,13.9975053 4.45944681,13.9975053 C4.61367021,13.9975053 4.73870213,13.8723989 4.73870213,13.7181755 L4.73870213,11.5688404 C4.73870213,11.1854787 4.98076064,10.8398723 5.34107447,10.7088457 L7.15258511,10.0501383 L7.90668617,11.1813457 C8.00308511,11.3259628 8.15756915,11.4187128 8.33052128,11.4358404 C8.34980851,11.4377394 8.36898404,11.4386702 8.38812234,11.4386702 C8.54070745,11.4386702 8.68685106,11.3786117 8.79609574,11.2694043 L9.25615957,10.8093404 L9.25615957,13.7182128 C9.25615957,13.8724362 9.38119149,13.9975053 9.53541489,13.9975053 C9.6896383,13.9975053 9.81467021,13.8724362 9.81467021,13.7182128 L9.81467021,10.8093404 L10.274734,11.2694043 C10.3839415,11.3786489 10.5300851,11.4387074 10.6827074,11.4387074 C10.7018085,11.4387074 10.7210213,11.4377766 10.7402713,11.4358777 C10.9132606,11.41875 11.0677447,11.326 11.1641436,11.181383 L11.9182819,10.0502128 L13.7297553,10.7089202 C14.0900319,10.8399468 14.3321277,11.1855532 14.3321277,11.5689149 L14.3321277,13.71825 C14.3321277,13.8724734 14.4571596,13.9975053 14.611383,13.9975053 C14.7656064,13.9975053 14.8906383,13.8724734 14.8906383,13.71825 L14.8906383,11.5689149 C14.8906383,11.1806383 14.7363777,10.8164894 14.4776011,10.5471755 L14.5465957,10.5274787 C14.6161862,10.5075957 14.711133,10.4803777 14.8064521,10.4336489 L15.5194468,11.1466436 L15.5194468,13.71825 C15.5194468,13.8724734 15.6444787,13.9975053 15.7987021,13.9975053 C15.9529255,13.9975053 16.0779574,13.8724734 16.0779574,13.71825 L16.0779574,11.1466436 L16.786,10.4386011 C16.8236436,10.4577394 16.8631862,10.4738989 16.9048138,10.4857766 L18.0581755,10.8152979 C18.3214202,10.8905106 18.5053191,11.1342819 18.5053191,11.4081011 L18.5053191,13.71825 C18.5053191,13.8724734 18.6303511,13.9975053 18.7845745,13.9975053 C18.9387979,13.9975053 19.0638298,13.8724734 19.0638298,13.71825 L19.0638298,11.4081011 C19.0638298,10.8861543 18.713383,10.4215106 18.211617,10.2781223 Z M1.79151596,9.78488298 C1.26915957,9.59692553 1.00714362,9.34634043 0.895292553,9.20950532 C0.971547872,9.01015426 1.02099468,8.78183511 1.05446809,8.54081915 C1.20846809,8.91006915 1.4663883,9.22529255 1.79151596,9.45018617 L1.79151596,9.78488298 Z M3.3912766,10.5406596 C3.15309043,10.7669681 2.77996809,10.7669309 2.54185638,10.5406223 L2.28214894,10.2938351 C2.3259734,10.211734 2.35006383,10.1186489 2.35006383,10.021133 L2.35006383,9.72348404 C2.54487234,9.7843617 2.75196809,9.81720213 2.96658511,9.81720213 C3.18094149,9.81720213 3.38792553,9.78421277 3.58306915,9.72367021 L3.58303191,10.0210957 C3.58303191,10.1186489 3.60708511,10.2117713 3.65094681,10.2939096 L3.3912766,10.5406596 Z M2.96665957,9.25869149 C2.13276596,9.25869149 1.45439894,8.58028723 1.45439894,7.74643085 C1.45439894,7.59220745 1.32936702,7.46717553 1.17514362,7.46717553 C1.15950532,7.46717553 1.14423936,7.4687766 1.12930851,7.47127128 C1.13012766,7.44725532 1.13090957,7.42320213 1.13172872,7.39940957 C1.13794681,7.20739362 1.14394149,7.0260266 1.155,6.87046277 C1.19067021,6.36869681 1.39117553,5.90632447 1.71957979,5.56846277 C2.05092553,5.22754787 2.49378723,5.03981383 2.96658511,5.03981383 C3.43938298,5.03981383 3.88220745,5.22754787 4.21359043,5.56846277 C4.54199468,5.90632447 4.7425,6.36869681 4.77817021,6.87046277 C4.78919149,7.02598936 4.7952234,7.20731915 4.80155319,7.39929787 C4.8021117,7.41579255 4.80267021,7.43251064 4.80322872,7.44911702 C4.49939894,6.98101064 4.03017553,6.63603723 3.42389362,6.44122872 C2.86378191,6.2612766 2.38204787,6.27240957 2.36171809,6.27293085 C2.28859043,6.27497872 2.21918617,6.30558511 2.16843617,6.35823404 L1.66458511,6.8807766 C1.55753723,6.99180851 1.56073936,7.16859574 1.67177128,7.27564362 C1.78280319,7.38269149 1.95959043,7.37945213 2.0666383,7.26845745 L2.48589362,6.83367553 C2.84695213,6.85132447 4.00854255,6.98640957 4.46030319,7.98119149 C4.34662766,8.71425532 3.71655319,9.25869149 2.96665957,9.25869149 Z M4.14150532,9.78581383 L4.14154255,9.45275532 C4.46640957,9.22909043 4.72470213,8.91446277 4.87881383,8.54242021 C4.91228723,8.78287766 4.96169681,9.01067553 5.03780319,9.20957979 C4.92658511,9.3451117 4.66334043,9.59793085 4.14150532,9.78581383 Z M6.82883511,5.25539894 L6.82883511,4.56254787 C6.82883511,4.52051064 6.81934043,4.47899468 6.80105851,4.44112766 C6.62136702,4.06901064 6.53025532,3.67418085 6.53025532,3.26758511 L6.53025532,2.67042553 C6.53025532,1.50727128 7.47655851,0.561005319 8.63967553,0.561005319 L12.5406489,0.561005319 L12.5406489,3.26762234 C12.5406489,3.67421809 12.4495372,4.06904787 12.2698457,4.44116489 C12.2515638,4.47903191 12.2420691,4.52054787 12.2420691,4.56258511 L12.2420691,5.35771809 C12.2420691,6.11397872 11.9380532,6.81543085 11.3860213,7.33287234 C11.3171011,7.39743617 11.2455745,7.45797872 11.1716277,7.5143883 C11.1699894,7.51550532 11.1684255,7.51673404 11.1668245,7.5178883 C10.6496809,7.91052128 10.0162553,8.10134574 9.35475532,8.05848936 C7.93833511,7.96678191 6.82883511,6.7355266 6.82883511,5.25539894 Z M8.40119149,10.8744255 C8.39925532,10.8763617 8.39475,10.8809415 8.38562766,10.8799734 C8.37654255,10.8790798 8.37296809,10.8737553 8.37144149,10.8714468 L7.50295745,9.56870213 L7.78243617,9.27503723 L9.09996277,10.175617 L8.40119149,10.8744255 Z M9.53545213,9.79676064 L8.02319149,8.76306915 L8.02319149,8.24179255 C8.41448404,8.45331915 8.85261702,8.5856117 9.31860106,8.61577128 C9.39221277,8.62053723 9.46537766,8.62288298 9.53831915,8.62288298 C10.0722926,8.62288298 10.5861968,8.49524468 11.0477128,8.25296277 L11.0477128,8.76306915 L9.53545213,9.79676064 Z M10.6994628,10.8715213 C10.6979362,10.8738298 10.6943617,10.8791543 10.6852766,10.8800479 C10.6761543,10.8812021 10.6716862,10.8763989 10.6697128,10.8745 L9.97094149,10.1757287 L11.2884681,9.2751117 L11.567984,9.5687766 L10.6994628,10.8715213 Z M15.7987021,10.6359043 L15.1649787,10.0022181 C15.1760372,9.95198936 15.1822926,9.89699468 15.1822553,9.83634043 L15.1822181,9.71849468 C15.3580745,9.77620745 15.5434255,9.81046277 15.7352181,9.81619681 C15.7567394,9.81686702 15.7780745,9.81716489 15.7995213,9.81716489 C16.0114574,9.81716489 16.2183298,9.78514362 16.4152234,9.72404255 L16.4152234,9.83648936 C16.4152234,9.89219149 16.4222234,9.9467766 16.4354043,9.99923936 L15.7987021,10.6359043 Z M16.8517926,8.83176596 C16.5558191,9.11898936 16.1648245,9.27068085 15.7520106,9.25794681 C14.943883,9.23370745 14.2864415,8.52190426 14.2864415,7.67129255 L14.2864415,7.14923404 C14.2864415,7.10585638 14.2763511,7.0631117 14.2569521,7.02435106 L14.0844468,6.67934043 C14.0212606,6.55293085 13.9878617,6.41144149 13.9878617,6.27010106 L13.9878617,6.25345745 C13.9878617,5.58421277 14.5323351,5.0397766 15.2015426,5.0397766 L17.6095798,5.0397766 L17.6095798,6.19961702 C17.6095798,6.38705319 17.5652713,6.57475 17.4814574,6.74241489 L17.3404894,7.02435106 C17.3210904,7.06314894 17.311,7.10585638 17.311,7.14923404 L17.311,7.74639362 C17.311,8.15894681 17.1479149,8.54439362 16.8517926,8.83176596 Z" id="Shape"></path>
                        <path d="M17.5902181,11.6473298 C17.4359947,11.6473298 17.3109628,11.7723617 17.3109628,11.9265851 L17.3109628,13.7181011 C17.3109628,13.8723245 17.4359947,13.9973564 17.5902181,13.9973564 C17.7444415,13.9973564 17.8694734,13.8723245 17.8694734,13.7181011 L17.8694734,11.9265851 C17.8694734,11.7723989 17.7444415,11.6473298 17.5902181,11.6473298 Z" id="Path"></path>
                        <path d="M1.4736117,12.0164681 C1.3193883,12.0164681 1.19435638,12.1415 1.19435638,12.2957234 L1.19435638,13.7181011 C1.19435638,13.8723245 1.3193883,13.9973564 1.4736117,13.9973564 C1.62783511,13.9973564 1.75286702,13.8723245 1.75286702,13.7181011 L1.75286702,12.2957234 C1.75286702,12.1415372 1.62783511,12.0164681 1.4736117,12.0164681 Z" id="Path"></path>
                        <path d="M11.823,3.36875 C10.7668191,2.31256915 8.55701596,2.51448936 7.65587766,2.65031915 C7.37204255,2.69310106 7.16606383,2.93329787 7.16606383,3.22145213 L7.16606383,3.86478191 C7.16606383,4.01900532 7.29109574,4.14403723 7.44531915,4.14403723 C7.59954255,4.14403723 7.72457447,4.01900532 7.72457447,3.86478191 L7.72457447,3.22141489 C7.72457447,3.21192021 7.73082979,3.20380319 7.73917021,3.20253723 C8.0991117,3.14828723 8.81337234,3.06458511 9.55339894,3.11392021 C10.4242287,3.17189362 11.0549734,3.39049468 11.4280957,3.76365426 C11.5371543,3.87271277 11.7139787,3.87271277 11.823,3.76365426 C11.9320585,3.65459574 11.9320585,3.47777128 11.823,3.36875 Z" id="Path"></path>
                        <path d="M6.251,12.2445266 C6.0967766,12.2445266 5.97174468,12.3695585 5.97174468,12.5237819 L5.97174468,13.7181383 C5.97174468,13.8723617 6.0967766,13.9973936 6.251,13.9973936 C6.4052234,13.9973936 6.53025532,13.8723617 6.53025532,13.7181383 L6.53025532,12.5237819 C6.53025532,12.3695957 6.4052234,12.2445266 6.251,12.2445266 Z" id="Path"></path>
                        <path d="M12.8199043,12.2445266 C12.6656809,12.2445266 12.5406489,12.3695585 12.5406489,12.5237819 L12.5406489,13.7181383 C12.5406489,13.8723617 12.6656809,13.9973936 12.8199043,13.9973936 C12.9741277,13.9973936 13.0991596,13.8723617 13.0991596,13.7181383 L13.0991596,12.5237819 C13.0991596,12.3695957 12.9741277,12.2445266 12.8199043,12.2445266 Z" id="Path"></path>
                    </g>
                </g>
            </g>
        </g>
    </g>
</svg>