<?xml version="1.0" encoding="UTF-8"?>
<svg width="232px" height="42px" viewBox="0 0 232 42" version="1.1" xmlns="http://www.w3.org/2000/svg" xmlns:xlink="http://www.w3.org/1999/xlink">
    <!-- Generator: sketchtool 61 (101010) - https://sketch.com -->
    <title>02295EE4-4ABA-4C61-8D6E-CC8467EC5D73</title>
    <desc>Created with sketchtool.</desc>
    <defs>
        <linearGradient x1="96.9159659%" y1="0%" x2="29.8864715%" y2="96.5788043%" id="linearGradient-1">
            <stop stop-color="#609FFF" offset="1.7076647%"></stop>
            <stop stop-color="#0A6FFF" offset="100%"></stop>
        </linearGradient>
    </defs>
    <g id="Desain" stroke="none" stroke-width="1" fill="none" fill-rule="evenodd">
        <g id="Agensip-Class-Pre-Launching" transform="translate(-120.000000, -46.000000)" fill-rule="nonzero">
            <g id="Group-3" transform="translate(120.000000, 46.000000)">
                <path d="M193.214231,30.5632943 C194.098275,30.5632943 194.911509,30.392023 195.653934,30.0494804 C196.396359,29.7069378 197.018622,29.2135903 197.520725,28.5694379 C198.022827,27.9252854 198.355416,27.1507945 198.518492,26.2459649 L198.518492,26.2459649 L196.922064,26.2459649 C196.79332,26.857802 196.54656,27.3726931 196.181785,27.7906382 C195.81701,28.2085832 195.377134,28.5252736 194.862157,28.7407092 C194.34718,28.9561448 193.797871,29.0638626 193.214231,29.0638626 C192.416017,29.0638626 191.693977,28.8613531 191.04811,28.4563342 C190.402243,28.0513153 189.889412,27.4545587 189.509617,26.6660644 C189.129821,25.8775701 188.939924,24.9102642 188.939924,23.7641469 C188.939924,22.6180295 189.129821,21.6507236 189.509617,20.8622293 C189.889412,20.0737351 190.402243,19.4769785 191.04811,19.0719595 C191.693977,18.6669406 192.416017,18.4644311 193.214231,18.4644311 C193.797871,18.4644311 194.34718,18.5721489 194.862157,18.7875845 C195.377134,19.0030201 195.81701,19.3197105 196.181785,19.7376555 C196.54656,20.1556006 196.79332,20.6704917 196.922064,21.2823288 L196.922064,21.2823288 L198.518492,21.2823288 C198.355416,20.3774993 198.022827,19.6030083 197.520725,18.9588558 C197.018622,18.3147034 196.396359,17.8213559 195.653934,17.4788133 C194.911509,17.1362707 194.098275,16.9649994 193.214231,16.9649994 C192.089865,16.9649994 191.089952,17.2407569 190.214491,17.7922721 C189.339031,18.3437872 188.650249,19.1279728 188.148147,20.1448288 C187.646044,21.1616848 187.394993,22.3681242 187.394993,23.7641469 C187.394993,25.1601695 187.646044,26.3666089 188.148147,27.3834649 C188.650249,28.4003209 189.339031,29.1845065 190.214491,29.7360216 C191.089952,30.2875368 192.089865,30.5632943 193.214231,30.5632943 Z M202.255507,30.3823284 L202.255507,17.1459653 L200.736326,17.1459653 L200.736326,30.3823284 L202.255507,30.3823284 Z M207.794941,30.6149989 C208.369998,30.6149989 208.857081,30.5288246 209.256188,30.3564762 C209.655295,30.1841277 209.975009,29.9751552 210.215332,29.7295586 C210.455654,29.483962 210.627313,29.2534459 210.730309,29.0380103 L210.730309,29.0380103 L210.807555,29.0380103 L210.807555,30.3823284 L212.326737,30.3823284 L212.326737,23.8417037 C212.326737,23.0532094 212.197993,22.4241374 211.940504,21.9544878 C211.683016,21.4848382 211.360082,21.1336782 210.971704,20.9010078 C210.583326,20.6683373 210.182073,20.5143009 209.767946,20.4388984 C209.353819,20.3634959 208.987971,20.3257947 208.670402,20.3257947 C208.172591,20.3257947 207.66727,20.3936569 207.154439,20.5293813 C206.641607,20.6651058 206.169545,20.9020849 205.738252,21.2403188 C205.306959,21.5785527 204.962569,22.0492795 204.70508,22.6524992 L204.70508,22.6524992 L206.147015,23.1695446 C206.314383,22.8076128 206.604057,22.4672246 207.016039,22.1483799 C207.42802,21.8295352 207.99664,21.6701128 208.721899,21.6701128 C209.421409,21.6701128 209.943896,21.84677 210.28936,22.2000844 C210.634823,22.5533988 210.807555,23.0489007 210.807555,23.68659 L210.807555,23.68659 L210.807555,23.7382946 C210.807555,23.9838912 210.720653,24.1562396 210.546848,24.25534 C210.373044,24.3544404 210.098389,24.424457 209.722885,24.4653897 C209.347381,24.5063225 208.859226,24.5655673 208.25842,24.6431241 C207.799232,24.7034461 207.343263,24.7842344 206.890513,24.8854891 C206.437763,24.9867439 206.024708,25.138626 205.65135,25.3411354 C205.277992,25.5436449 204.979734,25.822634 204.756578,26.1781027 C204.533421,26.5335715 204.421843,26.9956808 204.421843,27.5644308 C204.421843,28.2107376 204.572044,28.7611756 204.872448,29.2157447 C205.172851,29.6703138 205.578395,30.0171651 206.08908,30.2562986 C206.599766,30.4954321 207.168386,30.6149989 207.794941,30.6149989 Z M208.026681,29.2448285 C207.421583,29.2448285 206.922699,29.1101812 206.530029,28.8408867 C206.137359,28.5715922 205.941024,28.1719592 205.941024,27.6419876 C205.941024,27.2542035 206.045093,26.9472078 206.253229,26.7210004 C206.461366,26.4947931 206.73602,26.3245989 207.077192,26.2104181 C207.418364,26.0962372 207.786358,26.0132945 208.181174,25.96159 C208.34425,25.9400464 208.55775,25.9131169 208.821676,25.8808016 C209.085602,25.8484863 209.35811,25.8097079 209.639202,25.7644664 C209.920293,25.7192249 210.169199,25.665366 210.385918,25.6028897 C210.602637,25.5404134 210.743183,25.4703968 210.807555,25.39284 L210.807555,25.39284 L210.807555,26.7888627 C210.807555,27.202499 210.701341,27.5967461 210.488913,27.9716041 C210.276485,28.346462 209.963208,28.6523806 209.549081,28.8893597 C209.134954,29.1263389 208.627487,29.2448285 208.026681,29.2448285 Z M218.278152,30.5891466 C219.046326,30.5891466 219.720087,30.4598852 220.299436,30.2013625 C220.878785,29.9428398 221.330463,29.5895254 221.654469,29.1414194 C221.978475,28.6933133 222.140478,28.1848853 222.140478,27.6161354 C222.140478,26.2545824 221.265018,25.3583703 219.514096,24.9274991 L219.514096,24.9274991 L218.046413,24.5655673 C217.462772,24.4190711 217.033625,24.2359508 216.758971,24.0162065 C216.484316,23.7964622 216.346989,23.4970067 216.346989,23.1178401 C216.346989,22.6912776 216.547615,22.3390404 216.948868,22.0611285 C217.350121,21.7832165 217.853296,21.6442606 218.458394,21.6442606 C219.123572,21.6442606 219.6128,21.7950655 219.926078,22.0966753 C220.239355,22.3982852 220.462512,22.7214386 220.595548,23.0661355 L220.595548,23.0661355 L221.960236,22.6783514 C221.724205,21.9717227 221.326171,21.4029727 220.766134,20.9721015 C220.206097,20.5412303 219.43685,20.3257947 218.458394,20.3257947 C217.763175,20.3257947 217.141985,20.448593 216.594822,20.6941896 C216.047659,20.9397862 215.616366,21.2780201 215.300942,21.7088912 C214.985519,22.1397624 214.827808,22.6352643 214.827808,23.1953969 C214.827808,23.8804821 215.039163,24.4503092 215.461873,24.9048783 C215.884583,25.3594475 216.548688,25.6944498 217.454189,25.9098854 L217.454189,25.9098854 L219.102115,26.2976695 C220.080571,26.5260312 220.569799,26.9913721 220.569799,27.6936922 C220.569799,28.1202547 220.36059,28.485418 219.942171,28.7891822 C219.523752,29.0929464 218.960496,29.2448285 218.252403,29.2448285 C216.995002,29.2448285 216.231119,28.7105482 215.960757,27.6419876 L215.960757,27.6419876 L214.518821,28.0039194 C214.694772,28.848427 215.113191,29.4904251 215.774077,29.9299137 C216.434964,30.3694023 217.269656,30.5891466 218.278152,30.5891466 Z M227.602665,30.5891466 C228.370839,30.5891466 229.044601,30.4598852 229.623949,30.2013625 C230.203298,29.9428398 230.654976,29.5895254 230.978982,29.1414194 C231.302988,28.6933133 231.464992,28.1848853 231.464992,27.6161354 C231.464992,26.2545824 230.589531,25.3583703 228.83861,24.9274991 L228.83861,24.9274991 L227.370926,24.5655673 C226.787286,24.4190711 226.358138,24.2359508 226.083484,24.0162065 C225.80883,23.7964622 225.671502,23.4970067 225.671502,23.1178401 C225.671502,22.6912776 225.872129,22.3390404 226.273382,22.0611285 C226.674634,21.7832165 227.17781,21.6442606 227.782907,21.6442606 C228.448086,21.6442606 228.937314,21.7950655 229.250591,22.0966753 C229.563869,22.3982852 229.787025,22.7214386 229.920061,23.0661355 L229.920061,23.0661355 L231.28475,22.6783514 C231.048719,21.9717227 230.650684,21.4029727 230.090647,20.9721015 C229.53061,20.5412303 228.761363,20.3257947 227.782907,20.3257947 C227.087689,20.3257947 226.466498,20.448593 225.919335,20.6941896 C225.372172,20.9397862 224.940879,21.2780201 224.625456,21.7088912 C224.310033,22.1397624 224.152321,22.6352643 224.152321,23.1953969 C224.152321,23.8804821 224.363676,24.4503092 224.786386,24.9048783 C225.209096,25.3594475 225.873202,25.6944498 226.778703,25.9098854 L226.778703,25.9098854 L228.426628,26.2976695 C229.405084,26.5260312 229.894312,26.9913721 229.894312,27.6936922 C229.894312,28.1202547 229.685103,28.485418 229.266684,28.7891822 C228.848266,29.0929464 228.28501,29.2448285 227.576917,29.2448285 C226.319515,29.2448285 225.555633,28.7105482 225.28527,27.6419876 L225.28527,27.6419876 L223.843335,28.0039194 C224.019285,28.848427 224.437704,29.4904251 225.098591,29.9299137 C225.759478,30.3694023 226.594169,30.5891466 227.602665,30.5891466 Z" id="Class" fill="#262D41"></path>
                <path d="M68.1080025,27.4290717 L60.4013694,27.4290717 L59.2576287,30.4199989 L53.429998,30.4199989 L61.5723419,11.6999996 L67.3999726,11.6999996 L75.2699972,30.4199989 L69.2245112,30.4199989 L68.1080025,27.4290717 Z M66.6899976,23.3999991 L64.3775271,17.3549994 L62.0099977,23.3999991 L66.6899976,23.3999991 Z M89.2299531,20.68634 L94.1075075,20.68634 L94.1075075,28.212904 C92.0365905,29.600781 88.657726,30.6149989 85.9328353,30.6149989 C80.0198224,30.6149989 75.6599972,26.5314376 75.6599972,21.0333093 C75.6599972,15.5618709 80.1560669,11.5049996 86.31432,11.5049996 C89.2299531,11.5049996 92.3635774,12.5992872 94.3799965,14.3341336 L91.1646255,18.1507954 C89.8566779,16.923058 87.9492544,16.1223597 86.2870711,16.1223597 C83.5349314,16.1223597 81.4640145,18.2308653 81.4640145,21.0333093 C81.4640145,23.8891332 83.5621803,25.9709488 86.3415689,25.9709488 C87.1317872,25.9709488 88.1944946,25.7040493 89.2299531,25.2503203 L89.2299531,20.68634 Z M113.02407,15.9727526 L103.135262,15.9727526 L103.135262,18.9102703 L112.10292,18.9102703 L112.10292,23.1830234 L103.135262,23.1830234 L103.135262,26.1472458 L113.294996,26.1472458 L113.294996,30.4199989 L97.4999964,30.4199989 L97.4999964,11.6999996 L113.02407,11.6999996 L113.02407,15.9727526 Z M134.744995,30.4199989 L129.918085,30.4199989 L121.818695,20.0051633 L121.818695,30.4199989 L116.609996,30.4199989 L116.609996,11.6999996 L121.464176,11.6999996 L129.563567,22.1682446 L129.563567,11.6999996 L134.744995,11.6999996 L134.744995,30.4199989 Z M146.329796,11.5049996 C149.220329,11.5049996 152.191905,12.3590778 154.244994,13.666885 L152.164891,17.9372759 C150.219859,16.8429882 147.464397,15.8554603 145.870552,15.8554603 C144.92505,15.8554603 144.303721,16.1757396 144.303721,16.8696782 C144.303721,19.6187423 154.190966,17.9906558 154.190966,24.7432114 C154.190966,28.7200129 150.625074,30.6149989 146.383824,30.6149989 C143.169119,30.6149989 139.657256,29.4940213 137.279995,27.6524152 L139.387113,23.4354042 C141.332144,25.0634907 144.492821,26.2912281 146.437853,26.2912281 C147.626483,26.2912281 148.382885,25.8908789 148.382885,25.0368008 C148.382885,22.2076668 138.49564,23.995893 138.49564,17.403477 C138.49564,13.8003347 141.602288,11.5049996 146.329796,11.5049996 Z M162.629994,30.4199989 L156.974994,30.4199989 L156.974994,11.6999996 L162.629994,11.6999996 L162.629994,30.4199989 Z M166.529994,11.6999996 L175.168203,11.6999996 C180.084919,11.6999996 182.909993,14.1034232 182.909993,18.3494715 C182.909993,22.8091575 180.084919,25.3728093 175.168203,25.3728093 L172.180143,25.3728093 L172.180143,30.4199989 L166.529994,30.4199989 L166.529994,11.6999996 Z M172.184994,15.9899994 L172.184994,21.0599992 L174.942569,21.0599992 C176.652266,21.0599992 177.644993,20.1621868 177.644993,18.4985931 C177.644993,16.8878119 176.652266,15.9899994 174.942569,15.9899994 L172.184994,15.9899994 Z" id="AGENSIP-Copy-2" fill="#333333"></path>
                <g id="Group-3-Copy">
                    <circle id="Oval" fill="url(#linearGradient-1)" cx="20.8649992" cy="20.8649992" r="20.8649992"></circle>
                    <g id="Group-2" transform="translate(8.124838, 8.775000)" fill="#FFFFFF">
                        <path d="M13.5704053,0 C16.3653262,0 19.0240851,0.946114054 21.1787135,2.65613508 C22.224761,3.4863308 22.4073808,5.01705995 21.5866062,6.07511434 C20.7792869,7.11582357 19.3019054,7.31159371 18.2582423,6.52770063 L18.2064257,6.48768897 C16.8923194,5.44474841 15.277853,4.87024372 13.5704053,4.87024372 C9.41724629,4.87024372 6.05013782,8.27707551 6.05013782,12.4799995 C6.05013782,12.9396426 6.0904091,13.3897642 6.16757564,13.8269496 C4.61617672,14.2347749 3.04207156,14.6062092 1.47450425,14.9387742 C1.28641757,14.1493009 1.23499995,13.3216457 1.23499995,12.4799995 C1.23499995,5.58765806 6.75766842,0 13.5704053,0 Z" id="Path"></path>
                        <g id="Group" transform="translate(11.795274, 18.887102) rotate(63.000000) translate(-11.795274, -18.887102) translate(3.295274, 10.387102)">
                            <path d="M6.37713749,12.3512375 C6.14131257,12.1165291 6.13868796,11.733343 6.37127526,11.4953674 C6.60386256,11.2573918 6.98358568,11.2547433 7.2194106,11.4894517 L9.52993714,13.7890394 C9.76576206,14.0237478 9.76838667,14.4069339 9.53579937,14.6449095 C9.30321207,14.8828851 8.92348895,14.8855336 8.68766403,14.6508252 L6.37713749,12.3512375 Z" id="Line" transform="translate(7.953537, 13.070138) rotate(38.000000) translate(-7.953537, -13.070138) "></path>
                            <path d="M10.8841453,8.02291227 C10.6207948,7.80095176 10.5831482,7.40255972 10.8000593,7.13307874 C11.0169704,6.86359776 11.4062993,6.82507481 11.6696498,7.04703532 L14.3340921,9.29271535 C14.5974426,9.51467586 14.6350892,9.9130679 14.4181781,10.1825489 C14.201267,10.4520299 13.8119381,10.4905528 13.5485876,10.2685923 L10.8841453,8.02291227 Z" id="Line-Copy-2" transform="translate(12.609119, 8.657814) rotate(15.000000) translate(-12.609119, -8.657814) "></path>
                            <path d="M9.08959262,11.538244 C8.75534754,11.4908246 8.52072875,11.1657616 8.56555688,10.8121955 C8.61038501,10.4586294 8.91768456,10.2104485 9.25192964,10.2578679 L12.515541,10.7208771 C12.8497861,10.7682966 13.0844049,11.0933595 13.0395767,11.4469256 C12.9947486,11.8004917 12.6874491,12.0486726 12.353204,12.0012532 L9.08959262,11.538244 Z" id="Line-Copy" transform="translate(10.802567, 11.129561) rotate(11.000000) translate(-10.802567, -11.129561) "></path>
                            <path d="M12.0110214,5.80461722 C11.6767763,5.75719781 11.4421575,5.43213483 11.4869856,5.07856874 C11.5318138,4.72500266 11.8391133,4.47682175 12.1733584,4.52424117 L15.4369698,4.98725037 C15.7712148,5.03466979 16.0058336,5.35973277 15.9610055,5.71329885 C15.9161774,6.06686494 15.6088778,6.31504585 15.2746327,6.26762643 L12.0110214,5.80461722 Z" id="Line-Copy-3" transform="translate(13.723996, 5.395934) rotate(-21.000000) translate(-13.723996, -5.395934) "></path>
                            <path d="M11.9051126,1.61694293 C11.6335243,1.40386446 11.5882369,1.01366392 11.8039604,0.74540563 C12.0196839,0.477147337 12.4147282,0.432415248 12.6863166,0.645493713 L15.3302545,2.71983265 C15.6018428,2.93291112 15.6471302,3.32311166 15.4314067,3.59136995 C15.2156831,3.85962824 14.8206388,3.90436033 14.5490505,3.69128187 L11.9051126,1.61694293 Z" id="Line-Copy-5" transform="translate(13.617684, 2.168388) rotate(-13.000000) translate(-13.617684, -2.168388) "></path>
                            <path d="M0.875994922,13.2687767 C0.640170006,13.0340683 0.637545399,12.6508822 0.870132696,12.4129066 C1.10271999,12.1749311 1.48244312,12.1722825 1.71826803,12.4069909 L4.02879458,14.7065786 C4.26461949,14.941287 4.2672441,15.3244731 4.0346568,15.5624487 C3.8020695,15.8004243 3.42234638,15.8030728 3.18652146,15.5683644 L0.875994922,13.2687767 Z" id="Line-Copy-6" transform="translate(2.452395, 13.987678) rotate(60.000000) translate(-2.452395, -13.987678) "></path>
                            <path d="M3.56580503,14.1269147 C3.2263141,14.071011 2.99735103,13.756013 3.05440169,13.423347 C3.11145235,13.0906811 3.43291283,12.866321 3.77240376,12.9222247 L7.01056327,13.4554503 C7.35005421,13.511354 7.57901728,13.826352 7.52196662,14.1590179 C7.46491595,14.4916839 7.14345548,14.716044 6.80396455,14.6601402 L3.56580503,14.1269147 Z" id="Line-Copy-4" transform="translate(5.288184, 13.791182) rotate(46.000000) translate(-5.288184, -13.791182) "></path>
                            <circle id="Oval" cx="6.13085653" cy="11.9225826" r="1"></circle>
                            <circle id="Oval-Copy" cx="10.2188588" cy="13.348963" r="1"></circle>
                            <circle id="Oval-Copy-2" cx="10.5994516" cy="9.16581252" r="1"></circle>
                            <circle id="Oval-Copy-3" cx="14.710624" cy="7.54004816" r="1"></circle>
                            <circle id="Oval-Copy-4" cx="12.6749995" cy="3.89999986" r="1"></circle>
                            <circle id="Oval-Copy-5" cx="14.4127818" cy="0.822681735" r="1"></circle>
                            <circle id="Oval-Copy-7" cx="3.92427297" cy="15.3941979" r="1"></circle>
                        </g>
                    </g>
                </g>
            </g>
        </g>
    </g>
</svg>