<?xml version="1.0" encoding="UTF-8"?>
<svg width="42px" height="42px" viewBox="0 0 42 42" version="1.1" xmlns="http://www.w3.org/2000/svg" xmlns:xlink="http://www.w3.org/1999/xlink">
    <!-- Generator: Sketch 61.2 (89653) - https://sketch.com -->
    <title>Group 3 Copy</title>
    <desc>Created with Sketch.</desc>
    <defs>
        <linearGradient x1="96.9159659%" y1="0%" x2="29.8864715%" y2="96.5788043%" id="linearGradient-1">
            <stop stop-color="#609FFF" offset="1.7076647%"></stop>
            <stop stop-color="#0A6FFF" offset="100%"></stop>
        </linearGradient>
    </defs>
    <g id="Desain" stroke="none" stroke-width="1" fill="none" fill-rule="evenodd">
        <g id="Agensip-Class-Pre-Launching" transform="translate(-120.000000, -46.000000)" fill-rule="nonzero">
            <g id="Group-3" transform="translate(120.000000, 46.000000)">
                <g id="Group-3-Copy">
                    <circle id="Oval" fill="url(#linearGradient-1)" cx="20.8649992" cy="20.8649992" r="20.8649992"></circle>
                    <g id="Group-2" transform="translate(8.124838, 8.775000)" fill="#FFFFFF">
                        <path d="M13.5704053,0 C16.3653262,0 19.0240851,0.946114054 21.1787135,2.65613508 C22.224761,3.4863308 22.4073808,5.01705995 21.5866062,6.07511434 C20.7792869,7.11582357 19.3019054,7.31159371 18.2582423,6.52770063 L18.2064257,6.48768897 C16.8923194,5.44474841 15.277853,4.87024372 13.5704053,4.87024372 C9.41724629,4.87024372 6.05013782,8.27707551 6.05013782,12.4799995 C6.05013782,12.9396426 6.0904091,13.3897642 6.16757564,13.8269496 C4.61617672,14.2347749 3.04207156,14.6062092 1.47450425,14.9387742 C1.28641757,14.1493009 1.23499995,13.3216457 1.23499995,12.4799995 C1.23499995,5.58765806 6.75766842,0 13.5704053,0 Z" id="Path"></path>
                        <g id="Group" transform="translate(11.795274, 18.887102) rotate(63.000000) translate(-11.795274, -18.887102) translate(3.295274, 10.387102)">
                            <path d="M6.37713749,12.3512375 C6.14131257,12.1165291 6.13868796,11.733343 6.37127526,11.4953674 C6.60386256,11.2573918 6.98358568,11.2547433 7.2194106,11.4894517 L9.52993714,13.7890394 C9.76576206,14.0237478 9.76838667,14.4069339 9.53579937,14.6449095 C9.30321207,14.8828851 8.92348895,14.8855336 8.68766403,14.6508252 L6.37713749,12.3512375 Z" id="Line" transform="translate(7.953537, 13.070138) rotate(38.000000) translate(-7.953537, -13.070138) "></path>
                            <path d="M10.8841453,8.02291227 C10.6207948,7.80095176 10.5831482,7.40255972 10.8000593,7.13307874 C11.0169704,6.86359776 11.4062993,6.82507481 11.6696498,7.04703532 L14.3340921,9.29271535 C14.5974426,9.51467586 14.6350892,9.9130679 14.4181781,10.1825489 C14.201267,10.4520299 13.8119381,10.4905528 13.5485876,10.2685923 L10.8841453,8.02291227 Z" id="Line-Copy-2" transform="translate(12.609119, 8.657814) rotate(15.000000) translate(-12.609119, -8.657814) "></path>
                            <path d="M9.08959262,11.538244 C8.75534754,11.4908246 8.52072875,11.1657616 8.56555688,10.8121955 C8.61038501,10.4586294 8.91768456,10.2104485 9.25192964,10.2578679 L12.515541,10.7208771 C12.8497861,10.7682966 13.0844049,11.0933595 13.0395767,11.4469256 C12.9947486,11.8004917 12.6874491,12.0486726 12.353204,12.0012532 L9.08959262,11.538244 Z" id="Line-Copy" transform="translate(10.802567, 11.129561) rotate(11.000000) translate(-10.802567, -11.129561) "></path>
                            <path d="M12.0110214,5.80461722 C11.6767763,5.75719781 11.4421575,5.43213483 11.4869856,5.07856874 C11.5318138,4.72500266 11.8391133,4.47682175 12.1733584,4.52424117 L15.4369698,4.98725037 C15.7712148,5.03466979 16.0058336,5.35973277 15.9610055,5.71329885 C15.9161774,6.06686494 15.6088778,6.31504585 15.2746327,6.26762643 L12.0110214,5.80461722 Z" id="Line-Copy-3" transform="translate(13.723996, 5.395934) rotate(-21.000000) translate(-13.723996, -5.395934) "></path>
                            <path d="M11.9051126,1.61694293 C11.6335243,1.40386446 11.5882369,1.01366392 11.8039604,0.74540563 C12.0196839,0.477147337 12.4147282,0.432415248 12.6863166,0.645493713 L15.3302545,2.71983265 C15.6018428,2.93291112 15.6471302,3.32311166 15.4314067,3.59136995 C15.2156831,3.85962824 14.8206388,3.90436033 14.5490505,3.69128187 L11.9051126,1.61694293 Z" id="Line-Copy-5" transform="translate(13.617684, 2.168388) rotate(-13.000000) translate(-13.617684, -2.168388) "></path>
                            <path d="M0.875994922,13.2687767 C0.640170006,13.0340683 0.637545399,12.6508822 0.870132696,12.4129066 C1.10271999,12.1749311 1.48244312,12.1722825 1.71826803,12.4069909 L4.02879458,14.7065786 C4.26461949,14.941287 4.2672441,15.3244731 4.0346568,15.5624487 C3.8020695,15.8004243 3.42234638,15.8030728 3.18652146,15.5683644 L0.875994922,13.2687767 Z" id="Line-Copy-6" transform="translate(2.452395, 13.987678) rotate(60.000000) translate(-2.452395, -13.987678) "></path>
                            <path d="M3.56580503,14.1269147 C3.2263141,14.071011 2.99735103,13.756013 3.05440169,13.423347 C3.11145235,13.0906811 3.43291283,12.866321 3.77240376,12.9222247 L7.01056327,13.4554503 C7.35005421,13.511354 7.57901728,13.826352 7.52196662,14.1590179 C7.46491595,14.4916839 7.14345548,14.716044 6.80396455,14.6601402 L3.56580503,14.1269147 Z" id="Line-Copy-4" transform="translate(5.288184, 13.791182) rotate(46.000000) translate(-5.288184, -13.791182) "></path>
                            <circle id="Oval" cx="6.13085653" cy="11.9225826" r="1"></circle>
                            <circle id="Oval-Copy" cx="10.2188588" cy="13.348963" r="1"></circle>
                            <circle id="Oval-Copy-2" cx="10.5994516" cy="9.16581252" r="1"></circle>
                            <circle id="Oval-Copy-3" cx="14.710624" cy="7.54004816" r="1"></circle>
                            <circle id="Oval-Copy-4" cx="12.6749995" cy="3.89999986" r="1"></circle>
                            <circle id="Oval-Copy-5" cx="14.4127818" cy="0.822681735" r="1"></circle>
                            <circle id="Oval-Copy-7" cx="3.92427297" cy="15.3941979" r="1"></circle>
                        </g>
                    </g>
                </g>
            </g>
        </g>
    </g>
</svg>